<svg xmlns="http://www.w3.org/2000/svg" viewBox="0 0 640 512"><!--! Font Awesome Pro 7.0.0 by @fontawesome - https://fontawesome.com License - https://fontawesome.com/license (Commercial License) Copyright 2025 Fonticons, Inc. --><path opacity=".4" fill="currentColor" d="M32 64l0 384 208 0 0-64-144 0 0-256 144 0 0-64-208 0zm368 0l0 64 144 0 0 256-144 0 0 64 208 0 0-128 32 0 0-128-32 0 0-128-208 0z"/><path fill="currentColor" d="M352 96l0-32-64 0 0 272 64 0 0-240zm0 288l-64 0 0 64 64 0 0-64z"/></svg>