<svg xmlns="http://www.w3.org/2000/svg" viewBox="0 0 512 512"><!--! Font Awesome Pro 7.0.0 by @fontawesome - https://fontawesome.com License - https://fontawesome.com/license (Commercial License) Copyright 2025 Fonticons, Inc. --><path opacity=".4" fill="currentColor" d="M0 256l64 64 0 128 128 0 64 64 64-64 128 0 0-128 64-64-64-64 0-128-128 0-64-64-64 64-128 0 0 128-64 64zM232 144l48 0 0 144-48 0 0-144zm0 184l48 0 0 48-48 0 0-48z"/><path fill="currentColor" d="M280 168l0-24-48 0 0 144 48 0 0-120zm0 160l-48 0 0 48 48 0 0-48z"/></svg>