<svg xmlns="http://www.w3.org/2000/svg" viewBox="0 0 576 512"><!--! Font Awesome Pro 7.0.0 by @fontawesome - https://fontawesome.com License - https://fontawesome.com/license (Commercial License) Copyright 2025 Fonticons, Inc. --><path opacity=".4" fill="currentColor" d="M-5.5 160.6l143.9 144.1-31.7 201.2 181.5-92.3 181.5 92.3-31.7-201.2 143.9-144.1-201.1-32-92.6-181.4-92.6 181.4-201.1 32zM264.2 136l48 0 0 144-48 0 0-144zm0 184l48 0 0 48-48 0 0-48z"/><path fill="currentColor" d="M312.2 160l0-24-48 0 0 144 48 0 0-120zm0 160l-48 0 0 48 48 0 0-48z"/></svg>