<?xml version="1.0" encoding="UTF-8"?>
<svg id="Layer_2" data-name="Layer 2" xmlns="http://www.w3.org/2000/svg" viewBox="0 0 915.92 248.49">
  <defs>
    <style>
      .cls-1 {
        fill: #fd8b51;
      }

      .cls-2, .cls-3 {
        fill: #041e2d;
      }

      .cls-4 {
        fill: #041e2d;
      }

      .cls-3 {
        stroke: #041e2d;
        stroke-miterlimit: 10;
        stroke-width: 4px;
      }

      .cls-5 {
        fill: #cb6040;
      }

      .cls-6 {
        fill: #257180;
      }

      .cls-7 {
        fill: #f2e5bf;
      }
    </style>
  </defs>
  <g id="Layer_1-2" data-name="Layer 1">
    <g>
      <path class="cls-7" d="M138.3,126.77l-49.12-49.12c-1.49-1.49-1.49-3.9,0-5.39l49.12-49.12c4.29-4.29,11.62-1.25,11.62,4.81v94c0,6.06-7.33,9.1-11.62,4.81Z"/>
      <path class="cls-6" d="M23.15,11.62l49.12,49.12c1.49,1.49,3.9,1.49,5.39,0L126.77,11.62C131.06,7.33,128.02,0,121.96,0H27.96c-6.06,0-9.1,7.33-4.81,11.62Z"/>
      <path class="cls-5" d="M11.62,23.15l49.12,49.12c1.49,1.49,1.49,3.9,0,5.39L11.62,126.77c-4.29,4.29-11.62,1.25-11.62-4.81V27.96c0-6.06,7.33-9.1,11.62-4.81Z"/>
      <path class="cls-1" d="M126.77,138.3l-49.12-49.12c-1.49-1.49-3.9-1.49-5.39,0l-49.12,49.12c-4.29,4.29-1.25,11.62,4.81,11.62h94c6.06,0,9.1-7.33,4.81-11.62Z"/>
    </g>
    <polygon class="cls-4" points="288.61 20.07 242.96 91.43 197.15 20.07 176.12 20.07 176.12 150.26 205.08 150.26 205.08 78.18 233.29 122.23 252.47 122.23 280.68 78.18 280.68 150.26 309.63 150.26 309.63 20.07 288.61 20.07"/>
    <path class="cls-4" d="M349.46,64.69c-42.74,24.64-23.11,89.83,26.55,87.59,14.51-.05,27.65-4.4,36.88-15.49l-15.67-15.49c-16.55,16.51-37.37,9.75-43.28-6.33l64.12-.31c10.75-41.18-33.35-69.51-68.59-49.97ZM393.08,95.19l-39.1.22c.37-1.13.79-2.27,1.29-3.43,9.26-18.18,33.32-14.27,37.81,3.21Z"/>
    <path class="cls-4" d="M495.59,60.73c-3.26-1.29-7.04-1.94-11.34-1.94-9.71,0-17.36,2.89-22.96,8.67-.03.03-.06.07-.09.1v-6.93h-28.4v89.62h28.4v-49.05c0-5.78,1.38-10.11,4.15-13,2.77-2.89,6.55-4.33,11.34-4.33,2.33,0,4.43.37,6.27,1.11,1.84.74,3.32,1.72,4.43,2.95l16.78-21.39c-2.46-2.58-5.32-4.52-8.57-5.81Z"/>
    <path class="cls-4" d="M525.74,48.47c-4.3,0-7.93-1.54-10.88-4.61-2.95-3.07-4.43-6.76-4.43-11.06s1.48-8.11,4.43-11.06c2.95-2.95,6.57-4.43,10.88-4.43,4.55,0,8.21,1.48,10.97,4.43,2.77,2.95,4.15,6.64,4.15,11.06s-1.38,7.99-4.15,11.06c-2.77,3.07-6.43,4.61-10.97,4.61ZM511.54,150.26V60.64h28.4v89.62h-28.4Z"/>
    <path class="cls-4" d="M621.07,16.38v49.75c-2-1.52-4.21-2.83-6.64-3.93-5.04-2.27-10.57-3.41-16.6-3.41-8.48,0-16.04,2.03-22.68,6.09-6.64,4.06-11.8,9.58-15.49,16.6-3.69,7.01-5.53,15-5.53,23.97s1.84,16.96,5.53,23.97c3.69,7.01,8.82,12.54,15.4,16.6,6.57,4.06,14.17,6.09,22.77,6.09,6.02,0,11.55-1.26,16.6-3.78,2.65-1.32,5.05-2.89,7.19-4.69v6.63h27.85V16.38h-28.39ZM620.24,116.32c-1.66,3.2-3.96,5.69-6.91,7.47-2.95,1.78-6.45,2.67-10.51,2.67-3.81,0-7.25-.89-10.33-2.67-3.08-1.78-5.44-4.27-7.1-7.47-1.66-3.19-2.49-6.82-2.49-10.87s.89-7.66,2.67-10.79c1.78-3.14,4.15-5.62,7.1-7.47,2.95-1.85,6.39-2.77,10.33-2.77s7.38.89,10.33,2.67c2.95,1.79,5.25,4.24,6.91,7.38,1.66,3.14,2.49,6.73,2.49,10.79s-.83,7.87-2.49,11.06Z"/>
    <path class="cls-4" d="M683.57,48.47c-4.3,0-7.93-1.54-10.88-4.61-2.95-3.07-4.43-6.76-4.43-11.06s1.48-8.11,4.43-11.06c2.95-2.95,6.57-4.43,10.88-4.43,4.55,0,8.21,1.48,10.97,4.43,2.77,2.95,4.15,6.64,4.15,11.06s-1.38,7.99-4.15,11.06c-2.77,3.07-6.43,4.61-10.97,4.61ZM669.37,150.26V60.64h28.4v89.62h-28.4Z"/>
    <path class="cls-4" d="M779.46,60.64v7.4c-2.41-2.29-5.21-4.21-8.39-5.74-4.86-2.34-10.3-3.5-16.32-3.5-8.23,0-15.58,2-22.03,5.99-6.46,4-11.56,9.53-15.31,16.6-3.75,7.07-5.62,15.09-5.62,24.07s1.87,16.93,5.62,23.88c3.75,6.95,8.88,12.48,15.4,16.6,6.51,4.12,13.83,6.18,21.94,6.18,6.15,0,11.65-1.17,16.5-3.5,3.11-1.5,5.85-3.36,8.2-5.59v7.25h27.85V60.64h-27.85ZM775.12,120.57c-3.63,3.93-8.45,5.9-14.48,5.9-3.81,0-7.22-.89-10.23-2.67-3.02-1.78-5.41-4.27-7.19-7.47-1.78-3.19-2.68-6.82-2.68-10.87s.89-7.69,2.68-10.88c1.78-3.19,4.18-5.68,7.19-7.47,3.01-1.78,6.42-2.67,10.23-2.67s7.44.89,10.51,2.67c3.07,1.79,5.41,4.24,7.01,7.38,1.6,3.14,2.4,6.73,2.4,10.79,0,6.27-1.81,11.37-5.44,15.31Z"/>
    <path class="cls-2" d="M910.38,75.85c-2.95-5.22-7.01-9.37-12.17-12.45-5.16-3.07-11-4.61-17.52-4.61-6.89,0-13.06,1.45-18.53,4.33-2.49,1.32-4.72,2.89-6.73,4.7v-7.19h-28.4v89.62h28.4v-51.08c0-3.07.67-5.78,2.03-8.11,1.35-2.33,3.2-4.15,5.53-5.44,2.33-1.29,4.98-1.94,7.93-1.94,4.43,0,8.11,1.45,11.06,4.33,2.95,2.89,4.43,6.61,4.43,11.16v51.08h28.4v-57.35c0-6.15-1.47-11.83-4.43-17.06Z"/>
    <g>
      <path class="cls-3" d="M207.58,207.11h-19.65v18.22h21.9v5.47h-28.42v-50.55h27.3v5.47h-20.77v15.97h19.65v5.4Z"/>
      <path class="cls-3" d="M228.36,194.51l7.12,20.4c1.2,3.3,2.17,6.3,2.92,9.3h.23c.82-3,1.88-6,3.07-9.3l7.05-20.4h6.9l-14.25,36.3h-6.3l-13.8-36.3h7.05Z"/>
      <path class="cls-3" d="M273.06,213.86c.15,8.92,5.85,12.6,12.45,12.6,4.72,0,7.57-.83,10.05-1.88l1.12,4.72c-2.32,1.05-6.3,2.25-12.07,2.25-11.17,0-17.85-7.35-17.85-18.3s6.45-19.57,17.02-19.57c11.85,0,15,10.42,15,17.1,0,1.35-.15,2.4-.23,3.08h-25.5ZM292.41,209.14c.07-4.2-1.73-10.72-9.15-10.72-6.67,0-9.6,6.15-10.12,10.72h19.27Z"/>
      <path class="cls-3" d="M315.21,204.34c0-3.75-.07-6.83-.3-9.83h5.85l.38,6h.15c1.8-3.45,6-6.82,12-6.82,5.02,0,12.82,3,12.82,15.45v21.67h-6.6v-20.92c0-5.85-2.18-10.72-8.4-10.72-4.35,0-7.72,3.07-8.85,6.75-.3.83-.45,1.95-.45,3.08v21.82h-6.6v-26.47Z"/>
      <path class="cls-3" d="M372.73,184.09v10.42h9.45v5.03h-9.45v19.57c0,4.5,1.27,7.05,4.95,7.05,1.73,0,3-.23,3.83-.45l.3,4.95c-1.27.53-3.3.9-5.85.9-3.08,0-5.55-.97-7.12-2.78-1.87-1.95-2.55-5.17-2.55-9.45v-19.8h-5.62v-5.03h5.62v-8.7l6.45-1.72Z"/>
      <path class="cls-3" d="M428.75,185.81h-15.37v-5.55h37.42v5.55h-15.45v45h-6.6v-45Z"/>
      <path class="cls-3" d="M462.81,213.86c.15,8.92,5.85,12.6,12.45,12.6,4.72,0,7.57-.83,10.05-1.88l1.12,4.72c-2.33,1.05-6.3,2.25-12.08,2.25-11.17,0-17.85-7.35-17.85-18.3s6.45-19.57,17.02-19.57c11.85,0,15,10.42,15,17.1,0,1.35-.15,2.4-.22,3.08h-25.5ZM482.15,209.14c.08-4.2-1.72-10.72-9.15-10.72-6.67,0-9.6,6.15-10.12,10.72h19.27Z"/>
      <path class="cls-3" d="M530.83,229.46c-1.72.9-5.55,2.1-10.42,2.1-10.95,0-18.07-7.42-18.07-18.52s7.65-19.27,19.5-19.27c3.9,0,7.35.98,9.15,1.88l-1.5,5.1c-1.58-.9-4.05-1.72-7.65-1.72-8.32,0-12.82,6.15-12.82,13.72,0,8.4,5.4,13.57,12.6,13.57,3.75,0,6.22-.97,8.1-1.8l1.12,4.95Z"/>
      <path class="cls-3" d="M546.8,177.56h6.6v22.65h.15c1.05-1.88,2.7-3.53,4.72-4.65,1.95-1.12,4.28-1.87,6.75-1.87,4.88,0,12.67,3,12.67,15.52v21.6h-6.6v-20.85c0-5.85-2.17-10.8-8.4-10.8-4.27,0-7.65,3-8.85,6.6-.38.9-.45,1.88-.45,3.15v21.9h-6.6v-53.25Z"/>
      <path class="cls-3" d="M596.68,204.34c0-3.75-.08-6.83-.3-9.83h5.85l.38,6h.15c1.8-3.45,6-6.82,12-6.82,5.03,0,12.82,3,12.82,15.45v21.67h-6.6v-20.92c0-5.85-2.17-10.72-8.4-10.72-4.35,0-7.72,3.07-8.85,6.75-.3.83-.45,1.95-.45,3.08v21.82h-6.6v-26.47Z"/>
      <path class="cls-3" d="M679.4,212.36c0,13.42-9.3,19.27-18.07,19.27-9.82,0-17.4-7.2-17.4-18.67,0-12.15,7.95-19.27,18-19.27s17.47,7.57,17.47,18.67ZM650.6,212.74c0,7.95,4.58,13.95,11.02,13.95s11.02-5.92,11.02-14.1c0-6.15-3.07-13.95-10.87-13.95s-11.17,7.2-11.17,14.1Z"/>
      <path class="cls-3" d="M695.98,177.56h6.6v53.25h-6.6v-53.25Z"/>
      <path class="cls-3" d="M754.78,212.36c0,13.42-9.3,19.27-18.07,19.27-9.82,0-17.4-7.2-17.4-18.67,0-12.15,7.95-19.27,18-19.27s17.47,7.57,17.47,18.67ZM725.98,212.74c0,7.95,4.58,13.95,11.02,13.95s11.02-5.92,11.02-14.1c0-6.15-3.07-13.95-10.87-13.95s-11.17,7.2-11.17,14.1Z"/>
      <path class="cls-3" d="M802.62,194.51c-.15,2.62-.3,5.55-.3,9.97v21.07c0,8.33-1.65,13.42-5.17,16.57-3.52,3.3-8.62,4.35-13.2,4.35s-9.15-1.05-12.07-3l1.65-5.03c2.4,1.5,6.15,2.85,10.65,2.85,6.75,0,11.7-3.53,11.7-12.67v-4.05h-.15c-2.02,3.38-5.92,6.07-11.55,6.07-9,0-15.45-7.65-15.45-17.7,0-12.3,8.03-19.27,16.35-19.27,6.3,0,9.75,3.3,11.32,6.3h.15l.3-5.47h5.77ZM795.8,208.84c0-1.12-.08-2.1-.38-3-1.2-3.83-4.42-6.97-9.22-6.97-6.3,0-10.8,5.32-10.8,13.72,0,7.12,3.6,13.05,10.72,13.05,4.05,0,7.72-2.55,9.15-6.75.38-1.12.53-2.4.53-3.52v-6.52Z"/>
      <path class="cls-3" d="M828.43,184.31c.08,2.25-1.57,4.05-4.2,4.05-2.33,0-3.98-1.8-3.98-4.05s1.73-4.12,4.12-4.12,4.05,1.8,4.05,4.12ZM821.08,230.81v-36.3h6.6v36.3h-6.6Z"/>
      <path class="cls-3" d="M850.55,213.86c.15,8.92,5.85,12.6,12.45,12.6,4.72,0,7.57-.83,10.05-1.88l1.12,4.72c-2.32,1.05-6.3,2.25-12.07,2.25-11.17,0-17.85-7.35-17.85-18.3s6.45-19.57,17.02-19.57c11.85,0,15,10.42,15,17.1,0,1.35-.15,2.4-.23,3.08h-25.5ZM869.9,209.14c.08-4.2-1.73-10.72-9.15-10.72-6.67,0-9.6,6.15-10.12,10.72h19.27Z"/>
      <path class="cls-3" d="M891.8,224.06c1.95,1.28,5.4,2.62,8.7,2.62,4.8,0,7.05-2.4,7.05-5.4,0-3.15-1.88-4.88-6.75-6.67-6.52-2.33-9.6-5.92-9.6-10.27,0-5.85,4.72-10.65,12.52-10.65,3.67,0,6.9,1.05,8.92,2.25l-1.65,4.8c-1.43-.9-4.05-2.1-7.42-2.1-3.9,0-6.08,2.25-6.08,4.95,0,3,2.17,4.35,6.9,6.15,6.3,2.4,9.53,5.55,9.53,10.95,0,6.38-4.95,10.88-13.58,10.88-3.97,0-7.65-.97-10.2-2.47l1.65-5.03Z"/>
    </g>
  </g>
</svg>