<?xml version="1.0" encoding="UTF-8"?>
<svg id="Layer_2" data-name="Layer 2" xmlns="http://www.w3.org/2000/svg" viewBox="0 0 149.92 149.92">
  <defs>
    <style>
      .cls-1 {
        fill: #fd8b51;
      }

      .cls-2 {
        fill: #cb6040;
      }

      .cls-3 {
        fill: #257180;
      }

      .cls-4 {
        fill: #f2e5bf;
      }
    </style>
  </defs>
  <g id="Layer_1-2" data-name="Layer 1">
    <g>
      <path class="cls-4" d="M138.3,126.77l-49.12-49.12c-1.49-1.49-1.49-3.9,0-5.39l49.12-49.12c4.29-4.29,11.62-1.25,11.62,4.81v94c0,6.06-7.33,9.1-11.62,4.81Z"/>
      <path class="cls-3" d="M23.15,11.62l49.12,49.12c1.49,1.49,3.9,1.49,5.39,0L126.77,11.62C131.06,7.33,128.02,0,121.96,0H27.96c-6.06,0-9.1,7.33-4.81,11.62Z"/>
      <path class="cls-2" d="M11.62,23.15l49.12,49.12c1.49,1.49,1.49,3.9,0,5.39L11.62,126.77c-4.29,4.29-11.62,1.25-11.62-4.81V27.96c0-6.06,7.33-9.1,11.62-4.81Z"/>
      <path class="cls-1" d="M126.77,138.3l-49.12-49.12c-1.49-1.49-3.9-1.49-5.39,0l-49.12,49.12c-4.29,4.29-1.25,11.62,4.81,11.62h94c6.06,0,9.1-7.33,4.81-11.62Z"/>
    </g>
  </g>
</svg>