<svg xmlns="http://www.w3.org/2000/svg" width="38" height="36" viewBox="0 0 38 36" fill="none">
  <path fill-rule="evenodd" clip-rule="evenodd" d="M18.759 5.3999C11.5368 5.3999 5.62769 11.0699 5.62769 17.9999C5.62769 24.9299 11.5368 30.5999 18.759 30.5999C25.9812 30.5999 31.8903 24.9299 31.8903 17.9999C31.8903 11.0699 25.9812 5.3999 18.759 5.3999ZM29.9206 17.0999H25.3247C25.1371 13.7699 24.0115 10.5299 22.0418 7.6499C26.3564 8.9099 29.5455 12.5999 29.9206 17.0999ZM14.0693 17.0999H17.8211V7.7399C15.4762 10.4399 14.2568 13.7699 14.0693 17.0999ZM17.8211 18.8999V28.2599C15.4762 25.5599 14.2568 22.2299 14.0693 18.8999H17.8211ZM23.4488 18.8999H19.697V28.2599C22.0418 25.5599 23.2612 22.2299 23.4488 18.8999ZM19.697 17.0999V7.7399C22.0418 10.4399 23.2612 13.7699 23.4488 17.0999H19.697ZM12.1933 17.0999C12.2871 13.7699 13.4127 10.4399 15.4762 7.6499C11.1616 8.9099 7.97257 12.5999 7.59738 17.0999H12.1933ZM7.59738 18.8999H12.1933C12.3809 22.2299 13.5065 25.4699 15.4762 28.3499C11.1616 27.0899 7.97257 23.3999 7.59738 18.8999ZM25.3247 18.8999C25.2309 22.2299 24.1053 25.5599 22.0418 28.3499C26.3564 27.0899 29.5455 23.3999 29.9206 18.8999H25.3247Z" fill="#00095B"/>
</svg>