<svg xmlns="http://www.w3.org/2000/svg" width="16" height="16" viewBox="0 0 16 16" fill="none">
  <path fill-rule="evenodd" clip-rule="evenodd" d="M8 16C12.4 16 16 12.4 16 8C16 3.6 12.4 0 8 0C3.6 0 0 3.6 0 8C0 12.4 3.6 16 8 16ZM8.00001 5.14285C8.45715 5.14285 8.85715 4.74285 8.85715 4.28571C8.85715 3.82857 8.45715 3.42857 8.00001 3.42857C7.54287 3.42857 7.14287 3.82857 7.14287 4.28571C7.14287 4.74285 7.54287 5.14285 8.00001 5.14285ZM8.57144 10.8571H9.7143V12H6.28573V10.8571H7.42858V7.42857H6.28573V6.28571H8.57144V10.8571Z" fill="#0562D2"/>
  <path d="M8.85715 4.28571C8.85715 4.74285 8.45715 5.14285 8.00001 5.14285C7.54287 5.14285 7.14287 4.74285 7.14287 4.28571C7.14287 3.82857 7.54287 3.42857 8.00001 3.42857C8.45715 3.42857 8.85715 3.82857 8.85715 4.28571Z" fill="white"/>
  <path d="M9.7143 10.8571H8.57144V6.28571H6.28573V7.42857H7.42858V10.8571H6.28573V12H9.7143V10.8571Z" fill="white"/>
</svg>