<svg xmlns="http://www.w3.org/2000/svg" width="29" height="14" viewBox="0 0 29 14" fill="none">
  <path fill-rule="evenodd" clip-rule="evenodd" d="M6.95205 0H22.0479C25.8219 0 29 3.07877 29 6.95205C29 10.8253 25.9212 13.9041 22.0479 13.9041H6.95205C3.07877 13.9041 0 10.8253 0 6.95205C0 3.07877 3.07877 0 6.95205 0ZM6.95205 1.19178C3.77397 1.19178 1.19178 3.77397 1.19178 6.95205C1.19178 10.1301 3.77397 12.7123 6.95205 12.7123H13.7055L16.7842 1.19178H6.95205ZM24.0343 4.76713C24.2329 4.5685 24.2329 4.17124 24.0343 3.97261C23.8357 3.77398 23.4384 3.77398 23.2398 3.97261L21.0548 6.15754L18.8699 3.97261C18.6713 3.77398 18.274 3.77398 18.0754 3.97261C17.8768 4.17124 17.8768 4.5685 18.0754 4.76713L20.2603 6.95206L18.1747 9.13699C17.9761 9.33562 17.9761 9.73288 18.1747 9.93151C18.3733 10.1301 18.7706 10.1301 18.9692 9.93151L21.1542 7.74658L23.3391 9.93151C23.5377 10.1301 23.935 10.1301 24.1336 9.93151C24.3322 9.73288 24.3322 9.33562 24.1336 9.13699L21.9487 6.95206L24.0343 4.76713Z" fill="#00095B"/>
  <path d="M12.2157 4.07182C12.4144 4.27045 12.5137 4.66771 12.3151 4.86634L8.14383 9.73278C8.04451 9.8321 7.9452 9.93141 7.84588 9.93141C7.64725 10.0307 7.34931 10.0307 7.15068 9.8321L4.96575 7.64717C4.76711 7.44854 4.76711 7.05128 4.96575 6.85265C5.16438 6.65402 5.56164 6.65402 5.76027 6.85265L7.54794 8.541L11.3219 4.07182C11.5205 3.87319 11.9178 3.87319 12.2157 4.07182Z" fill="#00095B"/>
</svg>