<svg width="320" height="132" viewBox="0 0 320 132" fill="none" xmlns="http://www.w3.org/2000/svg">
<path d="M1.26 15V4.64H2.576V15H1.26ZM10.3671 9.89C10.3671 8.826 9.73711 8.098 8.60311 8.098C7.20311 8.098 6.26511 9.274 6.26511 11.094V15H5.01911V7.076H6.19511L6.25111 8.294C6.76911 7.426 7.66511 6.936 8.82711 6.936C10.5351 6.936 11.6271 8.028 11.6271 9.764V15H10.3671V9.89ZM17.6562 15.14C16.5642 15.14 15.7242 14.692 15.2202 13.936V17.45H13.9742V7.076H15.1502L15.1922 8.294C15.7382 7.468 16.6062 6.936 17.7682 6.936C19.7702 6.936 21.1422 8.476 21.1422 10.996C21.1422 13.572 19.7142 15.14 17.6562 15.14ZM15.2202 11.024C15.2202 12.858 16.1022 13.992 17.5302 13.992C18.9582 13.992 19.8682 12.886 19.8682 11.024C19.8682 9.19 18.9862 8.084 17.5442 8.084C16.1162 8.084 15.2202 9.162 15.2202 11.024ZM25.7263 15.14C24.0183 15.14 22.9403 14.048 22.9403 12.326V7.076H24.1863V12.186C24.1863 13.264 24.8723 13.992 25.9643 13.992C27.3783 13.992 28.3023 12.816 28.3023 10.996V7.076H29.5483V15H28.3583L28.3163 13.782C27.7983 14.65 26.8883 15.14 25.7263 15.14ZM34.5134 15.056C32.9174 15.056 32.3014 14.482 32.3014 13.04V8.224H31.0834V7.076H32.3294L32.4134 5.172H33.5474V7.076H35.8014L35.7034 8.224H33.5474V12.914C33.5474 13.698 33.7714 13.908 34.6254 13.908C34.9614 13.908 35.4094 13.894 35.8154 13.838V14.972C35.3954 15.028 35.2134 15.028 34.5134 15.056ZM43.5331 15C42.3431 15 41.7551 14.482 41.7551 13.474V4.64H43.0711V13.348C43.0711 13.81 43.2531 13.838 43.6871 13.838H47.7191V15H43.5331ZM53.4219 15L53.3659 13.796C52.9179 14.65 52.0499 15.14 50.9579 15.14C49.4039 15.14 48.3959 14.188 48.3959 12.76C48.3959 11.318 49.4179 10.478 51.2659 10.394L53.3519 10.282V9.512C53.3519 8.63 52.7499 8.126 51.2799 8.126C50.7759 8.126 50.2439 8.182 49.3479 8.322L49.2079 7.188C49.9499 7.034 50.8599 6.978 51.3919 6.978C53.6039 6.978 54.5979 7.916 54.5979 9.372V15H53.4219ZM49.6699 12.76C49.6699 13.53 50.2159 14.02 51.1539 14.02C52.4699 14.02 53.3519 13.054 53.3519 11.584V11.304L51.2799 11.416C50.2439 11.472 49.6699 11.948 49.6699 12.76ZM60.6406 15.14C59.5206 15.14 58.6806 14.678 58.1766 13.894L58.1206 15H56.9586V4.08H58.2046V8.252C58.7506 7.454 59.6046 6.936 60.7526 6.936C62.7546 6.936 64.1266 8.476 64.1266 10.996C64.1266 13.572 62.6986 15.14 60.6406 15.14ZM58.2046 11.024C58.2046 12.858 59.0866 13.992 60.5146 13.992C61.9426 13.992 62.8526 12.886 62.8526 11.024C62.8526 9.19 61.9706 8.084 60.5286 8.084C59.1006 8.084 58.2046 9.162 58.2046 11.024ZM69.4807 15.056C66.9887 15.056 65.4627 13.782 65.4627 11.108C65.4627 8.602 66.8207 6.936 69.0467 6.936C71.1047 6.936 72.2667 8.35 72.2667 10.52V11.486L66.7507 11.472C66.8907 13.236 67.8987 13.908 69.7327 13.908C70.2507 13.908 70.9787 13.866 71.7207 13.712L71.8607 14.832C71.1327 14.972 70.1527 15.056 69.4807 15.056ZM66.7647 10.422H71.0207C71.0067 8.924 70.2927 8.056 69.0047 8.056C67.6607 8.056 66.9187 8.98 66.7647 10.422ZM76.0768 15.056C74.6068 15.056 74.0468 14.468 74.0468 13.096V4.08H75.2928V12.984C75.2928 13.698 75.4888 13.908 76.3148 13.908C76.5808 13.908 76.7208 13.88 76.8328 13.852V15C76.6928 15.028 76.4688 15.042 76.0768 15.056Z" fill="#333333"/>
<mask id="path-3-inside-1_55482_43947" fill="white">
<path d="M0 32C0 27.5817 3.58172 24 8 24H312C316.418 24 320 27.5817 320 32V104C320 108.418 316.418 112 312 112H7.99999C3.58171 112 0 108.418 0 104V32Z"/>
</mask>
<path d="M0 32C0 27.5817 3.58172 24 8 24H312C316.418 24 320 27.5817 320 32V104C320 108.418 316.418 112 312 112H7.99999C3.58171 112 0 108.418 0 104V32Z" fill="white"/>
<path d="M8 26H312V22H8V26ZM318 32V104H322V32H318ZM312 110H7.99999V114H312V110ZM2 104V32H-2V104H2ZM7.99999 110C4.68629 110 2 107.314 2 104H-2C-2 109.523 2.47714 114 7.99999 114V110ZM318 104C318 107.314 315.314 110 312 110V114C317.523 114 322 109.523 322 104H318ZM312 26C315.314 26 318 28.6863 318 32H322C322 26.4772 317.523 22 312 22V26ZM8 22C2.47715 22 -2 26.4771 -2 32H2C2 28.6863 4.68629 26 8 26V22Z" fill="#008200" mask="url(#path-3-inside-1_55482_43947)"/>
<g clip-path="url(#clip0_55482_43947)">
<path d="M19.424 50C18.064 50 17.392 49.408 17.392 48.256V38.16H18.896V48.112C18.896 48.64 19.104 48.672 19.6 48.672H24.208V50H19.424ZM29.0195 50.16C26.6355 50.16 24.9395 48.576 24.9395 45.504C24.9395 42.496 26.6515 40.784 29.0355 40.784C31.3875 40.784 33.1635 42.432 33.1635 45.472C33.1635 48.48 31.3715 50.16 29.0195 50.16ZM29.0355 48.848C30.6355 48.848 31.6915 47.664 31.6915 45.488C31.6915 43.344 30.6515 42.096 29.0355 42.096C27.4035 42.096 26.4115 43.376 26.4115 45.488C26.4115 47.696 27.3875 48.848 29.0355 48.848ZM35.3299 50V40.944H36.6739L36.7219 42.08C37.3779 41.152 38.4179 40.816 39.5219 40.816H39.8579V42.208H39.3139C37.3459 42.208 36.7539 43.04 36.7539 45.536V50H35.3299ZM45.1721 50.064C42.3241 50.064 40.5801 48.608 40.5801 45.552C40.5801 42.688 42.1321 40.784 44.6761 40.784C47.0281 40.784 48.3561 42.4 48.3561 44.88V45.984L42.0521 45.968C42.2121 47.984 43.3641 48.752 45.4601 48.752C46.0521 48.752 46.8841 48.704 47.7321 48.528L47.8921 49.808C47.0601 49.968 45.9401 50.064 45.1721 50.064ZM42.0681 44.768H46.9321C46.9161 43.056 46.1001 42.064 44.6281 42.064C43.0921 42.064 42.2441 43.12 42.0681 44.768ZM61.7185 44.16C61.7185 42.944 61.0145 42.112 59.9105 42.112C58.4545 42.112 57.5105 43.456 57.5105 45.536V50H56.0865V44.16C56.0865 42.944 55.4145 42.112 54.2785 42.112C52.8385 42.112 51.8945 43.456 51.8945 45.536V50H50.4705V40.944H51.8145L51.8625 42.272C52.4225 41.328 53.3505 40.784 54.5505 40.784C55.7985 40.784 56.7265 41.376 57.1905 42.368C57.7345 41.36 58.7105 40.784 60.0065 40.784C61.9265 40.784 63.1425 42.016 63.1425 43.936V50H61.7185V44.16ZM70.7361 50V40.944H72.1601V50H70.7361ZM71.4401 39.216C70.9441 39.216 70.5281 38.8 70.5281 38.304C70.5281 37.792 70.9441 37.392 71.4401 37.392C71.9521 37.392 72.3521 37.792 72.3521 38.304C72.3521 38.8 71.9521 39.216 71.4401 39.216ZM79.1629 50.16C77.9149 50.16 76.9549 49.648 76.3789 48.784V52.8H74.9549V40.944H76.2989L76.3469 42.336C76.9709 41.392 77.9629 40.784 79.2909 40.784C81.5789 40.784 83.1469 42.544 83.1469 45.424C83.1469 48.368 81.5149 50.16 79.1629 50.16ZM76.3789 45.456C76.3789 47.552 77.3869 48.848 79.0189 48.848C80.6509 48.848 81.6909 47.584 81.6909 45.456C81.6909 43.36 80.6829 42.096 79.0349 42.096C77.4029 42.096 76.3789 43.328 76.3789 45.456ZM87.9859 50.16C86.8179 50.16 85.4099 49.872 84.5619 49.504L84.8819 48.256C85.8899 48.64 86.8339 48.864 87.8259 48.864C89.1699 48.864 89.9859 48.336 89.9859 47.376C89.9859 46.704 89.5539 46.368 88.1939 46.112L87.5059 45.968C85.6819 45.616 84.7539 44.864 84.7539 43.456C84.7539 41.792 86.0659 40.864 88.1939 40.864C88.9619 40.864 90.0179 40.992 90.8819 41.328L90.5459 42.544C89.7139 42.256 89.0259 42.16 88.3059 42.16C86.8819 42.16 86.2099 42.528 86.2099 43.344C86.2099 44.08 86.7379 44.496 88.2259 44.768L89.0099 44.928C90.6419 45.232 91.4579 46.032 91.4579 47.344C91.4579 49.056 90.0979 50.16 87.9859 50.16ZM96.4953 50.16C94.5433 50.16 93.3113 48.912 93.3113 46.944V40.944H94.7353V46.784C94.7353 48.016 95.5193 48.848 96.7673 48.848C98.3833 48.848 99.4393 47.504 99.4393 45.424V40.944H100.863V50H99.5033L99.4553 48.608C98.8633 49.6 97.8233 50.16 96.4953 50.16ZM114.922 44.16C114.922 42.944 114.218 42.112 113.114 42.112C111.658 42.112 110.714 43.456 110.714 45.536V50H109.29V44.16C109.29 42.944 108.618 42.112 107.482 42.112C106.042 42.112 105.098 43.456 105.098 45.536V50H103.674V40.944H105.018L105.066 42.272C105.626 41.328 106.554 40.784 107.754 40.784C109.002 40.784 109.93 41.376 110.394 42.368C110.938 41.36 111.914 40.784 113.21 40.784C115.13 40.784 116.346 42.016 116.346 43.936V50H114.922V44.16ZM127.139 50.16C124.867 50.16 123.283 48.4 123.283 45.536C123.283 42.592 124.931 40.784 127.283 40.784C128.547 40.784 129.491 41.312 130.067 42.176V37.52H131.491V50H130.147L130.083 48.624C129.459 49.552 128.467 50.16 127.139 50.16ZM124.755 45.504C124.755 47.6 125.747 48.848 127.395 48.848C129.027 48.848 130.067 47.616 130.067 45.504C130.067 43.408 129.043 42.096 127.411 42.096C125.795 42.096 124.755 43.376 124.755 45.504ZM137.738 50.16C135.354 50.16 133.658 48.576 133.658 45.504C133.658 42.496 135.37 40.784 137.754 40.784C140.106 40.784 141.882 42.432 141.882 45.472C141.882 48.48 140.09 50.16 137.738 50.16ZM137.754 48.848C139.354 48.848 140.41 47.664 140.41 45.488C140.41 43.344 139.37 42.096 137.754 42.096C136.122 42.096 135.13 43.376 135.13 45.488C135.13 47.696 136.106 48.848 137.754 48.848ZM146.289 50.064C144.609 50.064 143.969 49.392 143.969 47.824V37.52H145.393V47.696C145.393 48.512 145.617 48.752 146.561 48.752C146.865 48.752 147.025 48.72 147.153 48.688V50C146.993 50.032 146.737 50.048 146.289 50.064ZM152.301 50.16C149.917 50.16 148.221 48.576 148.221 45.504C148.221 42.496 149.933 40.784 152.317 40.784C154.669 40.784 156.445 42.432 156.445 45.472C156.445 48.48 154.653 50.16 152.301 50.16ZM152.317 48.848C153.917 48.848 154.973 47.664 154.973 45.488C154.973 43.344 153.933 42.096 152.317 42.096C150.685 42.096 149.693 43.376 149.693 45.488C149.693 47.696 150.669 48.848 152.317 48.848ZM158.611 50V40.944H159.955L160.003 42.08C160.659 41.152 161.699 40.816 162.803 40.816H163.139V42.208H162.595C160.627 42.208 160.035 43.04 160.035 45.536V50H158.611ZM172.127 50.16C170.959 50.16 169.551 49.872 168.703 49.504L169.023 48.256C170.031 48.64 170.975 48.864 171.967 48.864C173.311 48.864 174.127 48.336 174.127 47.376C174.127 46.704 173.695 46.368 172.335 46.112L171.647 45.968C169.823 45.616 168.895 44.864 168.895 43.456C168.895 41.792 170.207 40.864 172.335 40.864C173.103 40.864 174.159 40.992 175.023 41.328L174.687 42.544C173.855 42.256 173.167 42.16 172.447 42.16C171.023 42.16 170.351 42.528 170.351 43.344C170.351 44.08 170.879 44.496 172.367 44.768L173.151 44.928C174.783 45.232 175.599 46.032 175.599 47.344C175.599 49.056 174.239 50.16 172.127 50.16ZM177.58 50V40.944H179.004V50H177.58ZM178.284 39.216C177.788 39.216 177.372 38.8 177.372 38.304C177.372 37.792 177.788 37.392 178.284 37.392C178.796 37.392 179.196 37.792 179.196 38.304C179.196 38.8 178.796 39.216 178.284 39.216ZM184.663 50.064C182.839 50.064 182.135 49.408 182.135 47.76V42.256H180.743V40.944H182.167L182.263 38.768H183.559V40.944H186.135L186.023 42.256H183.559V47.616C183.559 48.512 183.815 48.752 184.791 48.752C185.175 48.752 185.687 48.736 186.151 48.672V49.968C185.671 50.032 185.463 50.032 184.663 50.064ZM197.835 50L197.771 48.624C197.259 49.6 196.267 50.16 195.019 50.16C193.243 50.16 192.091 49.072 192.091 47.44C192.091 45.792 193.259 44.832 195.371 44.736L197.755 44.608V43.728C197.755 42.72 197.067 42.144 195.387 42.144C194.811 42.144 194.203 42.208 193.179 42.368L193.019 41.072C193.867 40.896 194.907 40.832 195.515 40.832C198.043 40.832 199.179 41.904 199.179 43.568V50H197.835ZM193.547 47.44C193.547 48.32 194.171 48.88 195.243 48.88C196.747 48.88 197.755 47.776 197.755 46.096V45.776L195.387 45.904C194.203 45.968 193.547 46.512 193.547 47.44ZM213.125 44.16C213.125 42.944 212.421 42.112 211.317 42.112C209.861 42.112 208.917 43.456 208.917 45.536V50H207.493V44.16C207.493 42.944 206.821 42.112 205.685 42.112C204.245 42.112 203.301 43.456 203.301 45.536V50H201.877V40.944H203.221L203.269 42.272C203.829 41.328 204.757 40.784 205.957 40.784C207.205 40.784 208.133 41.376 208.597 42.368C209.141 41.36 210.117 40.784 211.413 40.784C213.333 40.784 214.549 42.016 214.549 43.936V50H213.125V44.16ZM221.172 50.064C218.324 50.064 216.58 48.608 216.58 45.552C216.58 42.688 218.132 40.784 220.676 40.784C223.028 40.784 224.356 42.4 224.356 44.88V45.984L218.052 45.968C218.212 47.984 219.364 48.752 221.46 48.752C222.052 48.752 222.884 48.704 223.732 48.528L223.892 49.808C223.06 49.968 221.94 50.064 221.172 50.064ZM218.068 44.768H222.932C222.916 43.056 222.1 42.064 220.628 42.064C219.092 42.064 218.244 43.12 218.068 44.768ZM229.319 50.064C227.495 50.064 226.791 49.408 226.791 47.76V42.256H225.399V40.944H226.823L226.919 38.768H228.215V40.944H230.791L230.679 42.256H228.215V47.616C228.215 48.512 228.471 48.752 229.447 48.752C229.831 48.752 230.343 48.736 230.807 48.672V49.968C230.327 50.032 230.119 50.032 229.319 50.064ZM241.547 50.064C238.699 50.064 236.955 48.608 236.955 45.552C236.955 42.688 238.507 40.784 241.051 40.784C243.403 40.784 244.731 42.4 244.731 44.88V45.984L238.427 45.968C238.587 47.984 239.739 48.752 241.835 48.752C242.427 48.752 243.259 48.704 244.107 48.528L244.267 49.808C243.435 49.968 242.315 50.064 241.547 50.064ZM238.443 44.768H243.307C243.291 43.056 242.475 42.064 241.003 42.064C239.467 42.064 238.619 43.12 238.443 44.768ZM249.086 50.064C247.406 50.064 246.766 49.392 246.766 47.824V37.52H248.19V47.696C248.19 48.512 248.414 48.752 249.358 48.752C249.661 48.752 249.822 48.72 249.95 48.688V50C249.79 50.032 249.534 50.048 249.086 50.064ZM251.83 50V40.944H253.254V50H251.83ZM252.534 39.216C252.038 39.216 251.622 38.8 251.622 38.304C251.622 37.792 252.038 37.392 252.534 37.392C253.046 37.392 253.446 37.792 253.446 38.304C253.446 38.8 253.046 39.216 252.534 39.216ZM258.913 50.064C257.089 50.064 256.385 49.408 256.385 47.76V42.256H254.993V40.944H256.417L256.513 38.768H257.809V40.944H260.385L260.273 42.256H257.809V47.616C257.809 48.512 258.065 48.752 259.041 48.752C259.425 48.752 259.937 48.736 260.401 48.672V49.968C259.921 50.032 259.713 50.032 258.913 50.064ZM261.339 52.256L262.283 48.064H263.819L262.571 52.256H261.339ZM273.533 50.16C272.365 50.16 270.957 49.872 270.109 49.504L270.429 48.256C271.437 48.64 272.381 48.864 273.373 48.864C274.717 48.864 275.533 48.336 275.533 47.376C275.533 46.704 275.101 46.368 273.741 46.112L273.053 45.968C271.229 45.616 270.301 44.864 270.301 43.456C270.301 41.792 271.613 40.864 273.741 40.864C274.509 40.864 275.565 40.992 276.429 41.328L276.093 42.544C275.261 42.256 274.573 42.16 273.853 42.16C272.429 42.16 271.757 42.528 271.757 43.344C271.757 44.08 272.285 44.496 273.773 44.768L274.557 44.928C276.189 45.232 277.005 46.032 277.005 47.344C277.005 49.056 275.645 50.16 273.533 50.16ZM282.922 50.064C280.074 50.064 278.33 48.608 278.33 45.552C278.33 42.688 279.882 40.784 282.426 40.784C284.778 40.784 286.106 42.4 286.106 44.88V45.984L279.802 45.968C279.962 47.984 281.114 48.752 283.21 48.752C283.802 48.752 284.634 48.704 285.482 48.528L285.642 49.808C284.81 49.968 283.69 50.064 282.922 50.064ZM279.818 44.768H284.682C284.666 43.056 283.85 42.064 282.378 42.064C280.842 42.064 279.994 43.12 279.818 44.768ZM291.421 50.16C289.149 50.16 287.565 48.4 287.565 45.536C287.565 42.592 289.213 40.784 291.565 40.784C292.829 40.784 293.773 41.312 294.349 42.176V37.52H295.773V50H294.429L294.365 48.624C293.741 49.552 292.749 50.16 291.421 50.16ZM289.037 45.504C289.037 47.6 290.029 48.848 291.677 48.848C293.309 48.848 294.349 47.616 294.349 45.504C294.349 43.408 293.325 42.096 291.693 42.096C290.077 42.096 289.037 43.376 289.037 45.504ZM20.608 74.16C18.336 74.16 16.752 72.4 16.752 69.536C16.752 66.592 18.4 64.784 20.752 64.784C22.016 64.784 22.96 65.312 23.536 66.176V61.52H24.96V74H23.616L23.552 72.624C22.928 73.552 21.936 74.16 20.608 74.16ZM18.224 69.504C18.224 71.6 19.216 72.848 20.864 72.848C22.496 72.848 23.536 71.616 23.536 69.504C23.536 67.408 22.512 66.096 20.88 66.096C19.264 66.096 18.224 67.376 18.224 69.504ZM31.207 74.16C28.823 74.16 27.127 72.576 27.127 69.504C27.127 66.496 28.839 64.784 31.223 64.784C33.575 64.784 35.351 66.432 35.351 69.472C35.351 72.48 33.559 74.16 31.207 74.16ZM31.223 72.848C32.823 72.848 33.879 71.664 33.879 69.488C33.879 67.344 32.839 66.096 31.223 66.096C29.591 66.096 28.599 67.376 28.599 69.488C28.599 71.696 29.575 72.848 31.223 72.848ZM46.3596 74.064C43.5116 74.064 41.7676 72.608 41.7676 69.552C41.7676 66.688 43.3196 64.784 45.8636 64.784C48.2156 64.784 49.5436 66.4 49.5436 68.88V69.984L43.2396 69.968C43.3996 71.984 44.5516 72.752 46.6476 72.752C47.2396 72.752 48.0716 72.704 48.9196 72.528L49.0796 73.808C48.2476 73.968 47.1276 74.064 46.3596 74.064ZM43.2556 68.768H48.1196C48.1036 67.056 47.2876 66.064 45.8156 66.064C44.2796 66.064 43.4316 67.12 43.2556 68.768ZM51.658 74V64.944H53.082V74H51.658ZM52.362 63.216C51.866 63.216 51.45 62.8 51.45 62.304C51.45 61.792 51.866 61.392 52.362 61.392C52.874 61.392 53.274 61.792 53.274 62.304C53.274 62.8 52.874 63.216 52.362 63.216ZM58.9328 74.16C56.9808 74.16 55.7488 72.912 55.7488 70.944V64.944H57.1728V70.784C57.1728 72.016 57.9568 72.848 59.2048 72.848C60.8208 72.848 61.8768 71.504 61.8768 69.424V64.944H63.3008V74H61.9408L61.8928 72.608C61.3008 73.6 60.2608 74.16 58.9328 74.16ZM68.7671 74.16C67.5991 74.16 66.1911 73.872 65.3431 73.504L65.6631 72.256C66.6711 72.64 67.6151 72.864 68.6071 72.864C69.9511 72.864 70.7671 72.336 70.7671 71.376C70.7671 70.704 70.3351 70.368 68.9751 70.112L68.2871 69.968C66.4631 69.616 65.5351 68.864 65.5351 67.456C65.5351 65.792 66.8471 64.864 68.9751 64.864C69.7431 64.864 70.7991 64.992 71.6631 65.328L71.3271 66.544C70.4951 66.256 69.8071 66.16 69.0871 66.16C67.6631 66.16 66.9911 66.528 66.9911 67.344C66.9911 68.08 67.5191 68.496 69.0071 68.768L69.7911 68.928C71.4231 69.232 72.2391 70.032 72.2391 71.344C72.2391 73.056 70.8791 74.16 68.7671 74.16ZM85.4685 68.16C85.4685 66.944 84.7645 66.112 83.6605 66.112C82.2045 66.112 81.2605 67.456 81.2605 69.536V74H79.8365V68.16C79.8365 66.944 79.1645 66.112 78.0285 66.112C76.5885 66.112 75.6445 67.456 75.6445 69.536V74H74.2205V64.944H75.5645L75.6125 66.272C76.1725 65.328 77.1005 64.784 78.3005 64.784C79.5485 64.784 80.4765 65.376 80.9405 66.368C81.4845 65.36 82.4605 64.784 83.7565 64.784C85.6765 64.784 86.8925 66.016 86.8925 67.936V74H85.4685V68.16ZM93.0039 74.16C90.6199 74.16 88.9239 72.576 88.9239 69.504C88.9239 66.496 90.6359 64.784 93.0199 64.784C95.3719 64.784 97.1479 66.432 97.1479 69.472C97.1479 72.48 95.3559 74.16 93.0039 74.16ZM93.0199 72.848C94.6199 72.848 95.6759 71.664 95.6759 69.488C95.6759 67.344 94.6359 66.096 93.0199 66.096C91.3879 66.096 90.3959 67.376 90.3959 69.488C90.3959 71.696 91.3719 72.848 93.0199 72.848ZM102.514 74.16C100.242 74.16 98.6583 72.4 98.6583 69.536C98.6583 66.592 100.306 64.784 102.658 64.784C103.922 64.784 104.866 65.312 105.442 66.176V61.52H106.866V74H105.522L105.458 72.624C104.834 73.552 103.842 74.16 102.514 74.16ZM100.13 69.504C100.13 71.6 101.122 72.848 102.77 72.848C104.402 72.848 105.442 71.616 105.442 69.504C105.442 67.408 104.418 66.096 102.786 66.096C101.17 66.096 100.13 67.376 100.13 69.504ZM117.46 74.064C115.636 74.064 114.932 73.408 114.932 71.76V66.256H113.54V64.944H114.964L115.06 62.768H116.356V64.944H118.932L118.82 66.256H116.356V71.616C116.356 72.512 116.612 72.752 117.588 72.752C117.972 72.752 118.484 72.736 118.948 72.672V73.968C118.468 74.032 118.26 74.032 117.46 74.064ZM124.735 74.064C121.887 74.064 120.143 72.608 120.143 69.552C120.143 66.688 121.695 64.784 124.239 64.784C126.591 64.784 127.919 66.4 127.919 68.88V69.984L121.615 69.968C121.775 71.984 122.927 72.752 125.023 72.752C125.615 72.752 126.447 72.704 127.295 72.528L127.455 73.808C126.623 73.968 125.503 74.064 124.735 74.064ZM121.631 68.768H126.495C126.479 67.056 125.663 66.064 124.191 66.064C122.655 66.064 121.807 67.12 121.631 68.768ZM141.281 68.16C141.281 66.944 140.577 66.112 139.473 66.112C138.017 66.112 137.073 67.456 137.073 69.536V74H135.649V68.16C135.649 66.944 134.977 66.112 133.841 66.112C132.401 66.112 131.457 67.456 131.457 69.536V74H130.033V64.944H131.377L131.425 66.272C131.985 65.328 132.913 64.784 134.113 64.784C135.361 64.784 136.289 65.376 136.753 66.368C137.297 65.36 138.273 64.784 139.569 64.784C141.489 64.784 142.705 66.016 142.705 67.936V74H141.281V68.16ZM149.6 74.16C148.352 74.16 147.392 73.648 146.816 72.784V76.8H145.392V64.944H146.736L146.784 66.336C147.408 65.392 148.4 64.784 149.728 64.784C152.016 64.784 153.584 66.544 153.584 69.424C153.584 72.368 151.952 74.16 149.6 74.16ZM146.816 69.456C146.816 71.552 147.824 72.848 149.456 72.848C151.088 72.848 152.128 71.584 152.128 69.456C152.128 67.36 151.12 66.096 149.472 66.096C147.84 66.096 146.816 67.328 146.816 69.456ZM159.191 74.16C156.807 74.16 155.111 72.576 155.111 69.504C155.111 66.496 156.823 64.784 159.207 64.784C161.559 64.784 163.335 66.432 163.335 69.472C163.335 72.48 161.543 74.16 159.191 74.16ZM159.207 72.848C160.807 72.848 161.863 71.664 161.863 69.488C161.863 67.344 160.823 66.096 159.207 66.096C157.575 66.096 156.583 67.376 156.583 69.488C156.583 71.696 157.559 72.848 159.207 72.848ZM165.502 74V64.944H166.846L166.894 66.08C167.55 65.152 168.59 64.816 169.694 64.816H170.03V66.208H169.486C167.518 66.208 166.926 67.04 166.926 69.536V74H165.502ZM176.361 74V64.944H177.785V74H176.361ZM177.065 63.216C176.569 63.216 176.153 62.8 176.153 62.304C176.153 61.792 176.569 61.392 177.065 61.392C177.577 61.392 177.977 61.792 177.977 62.304C177.977 62.8 177.577 63.216 177.065 63.216ZM186.692 68.16C186.692 66.944 185.972 66.112 184.676 66.112C183.076 66.112 182.004 67.456 182.004 69.536V74H180.58V64.944H181.924L181.988 66.336C182.58 65.344 183.604 64.784 184.932 64.784C186.884 64.784 188.132 66.032 188.132 68.016V74H186.692V68.16ZM194.334 74.16C191.694 74.16 190.158 72.56 190.158 69.632C190.158 66.624 191.806 64.864 194.606 64.864C195.31 64.864 196.126 65.008 196.67 65.232L196.35 66.464C195.726 66.24 195.294 66.192 194.606 66.192C192.622 66.192 191.63 67.36 191.63 69.6C191.63 71.792 192.574 72.848 194.574 72.848C195.198 72.848 195.822 72.752 196.542 72.416L196.894 73.6C196.206 73.936 195.278 74.16 194.334 74.16ZM198.814 74V64.944H200.238V74H198.814ZM199.518 63.216C199.022 63.216 198.606 62.8 198.606 62.304C198.606 61.792 199.022 61.392 199.518 61.392C200.03 61.392 200.43 61.792 200.43 62.304C200.43 62.8 200.03 63.216 199.518 63.216ZM206.233 74.16C203.961 74.16 202.377 72.4 202.377 69.536C202.377 66.592 204.025 64.784 206.377 64.784C207.641 64.784 208.585 65.312 209.161 66.176V61.52H210.585V74H209.241L209.177 72.624C208.553 73.552 207.561 74.16 206.233 74.16ZM203.849 69.504C203.849 71.6 204.841 72.848 206.489 72.848C208.121 72.848 209.161 71.616 209.161 69.504C209.161 67.408 208.137 66.096 206.505 66.096C204.889 66.096 203.849 67.376 203.849 69.504ZM213.408 74V64.944H214.832V74H213.408ZM214.112 63.216C213.616 63.216 213.2 62.8 213.2 62.304C213.2 61.792 213.616 61.392 214.112 61.392C214.624 61.392 215.024 61.792 215.024 62.304C215.024 62.8 214.624 63.216 214.112 63.216ZM220.827 74.16C218.555 74.16 216.971 72.4 216.971 69.536C216.971 66.592 218.619 64.784 220.971 64.784C222.235 64.784 223.179 65.312 223.755 66.176V61.52H225.179V74H223.835L223.771 72.624C223.147 73.552 222.155 74.16 220.827 74.16ZM218.443 69.504C218.443 71.6 219.435 72.848 221.083 72.848C222.715 72.848 223.755 71.616 223.755 69.504C223.755 67.408 222.731 66.096 221.099 66.096C219.483 66.096 218.443 67.376 218.443 69.504ZM231.058 74.16C229.106 74.16 227.874 72.912 227.874 70.944V64.944H229.298V70.784C229.298 72.016 230.082 72.848 231.33 72.848C232.946 72.848 234.002 71.504 234.002 69.424V64.944H235.426V74H234.066L234.018 72.608C233.426 73.6 232.386 74.16 231.058 74.16ZM244.348 68.16C244.348 66.944 243.628 66.112 242.332 66.112C240.732 66.112 239.66 67.456 239.66 69.536V74H238.236V64.944H239.58L239.644 66.336C240.236 65.344 241.26 64.784 242.588 64.784C244.54 64.784 245.788 66.032 245.788 68.016V74H244.348V68.16ZM251.272 74.064C249.448 74.064 248.744 73.408 248.744 71.76V66.256H247.352V64.944H248.776L248.872 62.768H250.168V64.944H252.744L252.632 66.256H250.168V71.616C250.168 72.512 250.424 72.752 251.4 72.752C251.784 72.752 252.296 72.736 252.76 72.672V73.968C252.28 74.032 252.072 74.032 251.272 74.064ZM262.62 74.16C260.668 74.16 259.436 72.912 259.436 70.944V64.944H260.86V70.784C260.86 72.016 261.644 72.848 262.892 72.848C264.508 72.848 265.564 71.504 265.564 69.424V64.944H266.988V74H265.628L265.58 72.608C264.988 73.6 263.948 74.16 262.62 74.16ZM272.663 74.064C270.839 74.064 270.135 73.408 270.135 71.76V66.256H268.743V64.944H270.167L270.263 62.768H271.559V64.944H274.135L274.023 66.256H271.559V71.616C271.559 72.512 271.815 72.752 272.791 72.752C273.175 72.752 273.687 72.736 274.151 72.672V73.968C273.671 74.032 273.463 74.032 272.663 74.064ZM276.641 74.064C276.081 74.064 275.633 73.6 275.633 73.056C275.633 72.496 276.081 72.048 276.641 72.048C277.185 72.048 277.649 72.496 277.649 73.056C277.649 73.6 277.185 74.064 276.641 74.064Z" fill="#333333"/>
</g>
<g clip-path="url(#clip1_55482_43947)">
<path d="M150.418 100L153.286 95.332L150.634 91.12H151.918L154.066 94.636L156.166 91.12H157.402L154.798 95.368L157.582 100H156.274L153.994 96.124L151.678 100H150.418ZM157.918 100L160.786 95.332L158.134 91.12H159.418L161.566 94.636L163.666 91.12H164.902L162.298 95.368L165.082 100H163.774L161.494 96.124L159.178 100H157.918ZM165.418 100L168.286 95.332L165.634 91.12H166.918L169.066 94.636L171.166 91.12H172.402L169.798 95.368L172.582 100H171.274L168.994 96.124L166.678 100H165.418ZM181.291 92.056C179.299 92.056 178.183 93.4 178.195 95.692C178.195 97.888 179.215 99.124 181.159 99.124C182.047 99.124 182.779 98.908 183.355 98.584L183.595 99.508C182.995 99.868 182.155 100.12 181.111 100.12C178.567 100.12 177.043 98.404 177.043 95.656C177.031 92.824 178.675 91.06 181.291 91.06C182.131 91.06 183.019 91.264 183.571 91.612L183.319 92.536C182.695 92.176 182.023 92.056 181.291 92.056ZM189.628 95.62C189.628 94.708 189.088 94.072 188.116 94.072C186.916 94.072 186.112 95.092 186.112 96.652V100H185.044V90.64H186.112V94.252C186.532 93.496 187.288 93.088 188.272 93.088C189.784 93.088 190.708 94.024 190.708 95.512V100H189.628V95.62ZM196.38 100L196.332 98.968C195.948 99.7 195.204 100.12 194.268 100.12C192.936 100.12 192.072 99.304 192.072 98.08C192.072 96.844 192.948 96.124 194.532 96.052L196.32 95.956V95.296C196.32 94.54 195.804 94.108 194.544 94.108C194.112 94.108 193.656 94.156 192.888 94.276L192.768 93.304C193.404 93.172 194.184 93.124 194.64 93.124C196.536 93.124 197.388 93.928 197.388 95.176V100H196.38ZM193.164 98.08C193.164 98.74 193.632 99.16 194.436 99.16C195.564 99.16 196.32 98.332 196.32 97.072V96.832L194.544 96.928C193.656 96.976 193.164 97.384 193.164 98.08ZM199.411 100V93.208H200.419L200.455 94.06C200.947 93.364 201.727 93.112 202.555 93.112H202.807V94.156H202.399C200.923 94.156 200.479 94.78 200.479 96.652V100H199.411ZM207.583 100L207.535 98.968C207.151 99.7 206.407 100.12 205.471 100.12C204.139 100.12 203.275 99.304 203.275 98.08C203.275 96.844 204.151 96.124 205.735 96.052L207.523 95.956V95.296C207.523 94.54 207.007 94.108 205.747 94.108C205.315 94.108 204.859 94.156 204.091 94.276L203.971 93.304C204.607 93.172 205.387 93.124 205.843 93.124C207.739 93.124 208.591 93.928 208.591 95.176V100H207.583ZM204.367 98.08C204.367 98.74 204.835 99.16 205.639 99.16C206.767 99.16 207.523 98.332 207.523 97.072V96.832L205.747 96.928C204.859 96.976 204.367 97.384 204.367 98.08ZM213.255 100.12C211.275 100.12 210.123 98.92 210.123 96.724C210.123 94.468 211.359 93.148 213.459 93.148C213.987 93.148 214.599 93.256 215.007 93.424L214.767 94.348C214.299 94.18 213.975 94.144 213.459 94.144C211.971 94.144 211.227 95.02 211.227 96.7C211.227 98.344 211.935 99.136 213.435 99.136C213.903 99.136 214.371 99.064 214.911 98.812L215.175 99.7C214.659 99.952 213.963 100.12 213.255 100.12ZM218.763 100.048C217.395 100.048 216.867 99.556 216.867 98.32V94.192H215.823V93.208H216.891L216.963 91.576H217.935V93.208H219.867L219.783 94.192H217.935V98.212C217.935 98.884 218.127 99.064 218.859 99.064C219.147 99.064 219.531 99.052 219.879 99.004V99.976C219.519 100.024 219.363 100.024 218.763 100.048ZM224.219 100.048C222.083 100.048 220.775 98.956 220.775 96.664C220.775 94.516 221.939 93.088 223.847 93.088C225.611 93.088 226.607 94.3 226.607 96.16V96.988L221.879 96.976C221.999 98.488 222.863 99.064 224.435 99.064C224.879 99.064 225.503 99.028 226.139 98.896L226.259 99.856C225.635 99.976 224.795 100.048 224.219 100.048ZM221.891 96.076H225.539C225.527 94.792 224.915 94.048 223.811 94.048C222.659 94.048 222.023 94.84 221.891 96.076ZM228.193 100V93.208H229.201L229.237 94.06C229.729 93.364 230.509 93.112 231.337 93.112H231.589V94.156H231.181C229.705 94.156 229.261 94.78 229.261 96.652V100H228.193ZM234.732 100.12C233.856 100.12 232.8 99.904 232.164 99.628L232.404 98.692C233.16 98.98 233.868 99.148 234.612 99.148C235.62 99.148 236.232 98.752 236.232 98.032C236.232 97.528 235.908 97.276 234.888 97.084L234.372 96.976C233.004 96.712 232.308 96.148 232.308 95.092C232.308 93.844 233.292 93.148 234.888 93.148C235.464 93.148 236.256 93.244 236.904 93.496L236.652 94.408C236.028 94.192 235.512 94.12 234.972 94.12C233.904 94.12 233.4 94.396 233.4 95.008C233.4 95.56 233.796 95.872 234.912 96.076L235.5 96.196C236.724 96.424 237.336 97.024 237.336 98.008C237.336 99.292 236.316 100.12 234.732 100.12ZM242.525 100V91.12H245.297C247.505 91.12 248.669 91.864 248.669 93.652C248.669 94.732 248.249 95.452 247.229 95.896C248.021 96.112 248.561 96.772 248.561 97.672V100H247.433V97.792C247.433 97.036 246.929 96.46 245.957 96.46H243.653V100H242.525ZM243.653 95.488H245.621C246.965 95.488 247.517 94.696 247.517 93.712C247.517 92.512 246.653 92.116 245.285 92.116H243.653V95.488ZM253.434 100.048C251.298 100.048 249.99 98.956 249.99 96.664C249.99 94.516 251.154 93.088 253.062 93.088C254.826 93.088 255.822 94.3 255.822 96.16V96.988L251.094 96.976C251.214 98.488 252.078 99.064 253.65 99.064C254.094 99.064 254.718 99.028 255.354 98.896L255.474 99.856C254.85 99.976 254.01 100.048 253.434 100.048ZM251.106 96.076H254.754C254.742 94.792 254.13 94.048 253.026 94.048C251.874 94.048 251.238 94.84 251.106 96.076ZM265.844 95.62C265.844 94.708 265.316 94.084 264.488 94.084C263.396 94.084 262.688 95.092 262.688 96.652V100H261.62V95.62C261.62 94.708 261.116 94.084 260.264 94.084C259.184 94.084 258.476 95.092 258.476 96.652V100H257.408V93.208H258.416L258.452 94.204C258.872 93.496 259.568 93.088 260.468 93.088C261.404 93.088 262.1 93.532 262.448 94.276C262.856 93.52 263.588 93.088 264.56 93.088C266 93.088 266.912 94.012 266.912 95.452V100H265.844V95.62ZM272.587 100L272.539 98.968C272.155 99.7 271.411 100.12 270.475 100.12C269.143 100.12 268.279 99.304 268.279 98.08C268.279 96.844 269.155 96.124 270.739 96.052L272.527 95.956V95.296C272.527 94.54 272.011 94.108 270.751 94.108C270.319 94.108 269.863 94.156 269.095 94.276L268.975 93.304C269.611 93.172 270.391 93.124 270.847 93.124C272.743 93.124 273.595 93.928 273.595 95.176V100H272.587ZM269.371 98.08C269.371 98.74 269.839 99.16 270.643 99.16C271.771 99.16 272.527 98.332 272.527 97.072V96.832L270.751 96.928C269.863 96.976 269.371 97.384 269.371 98.08ZM275.619 100V93.208H276.687V100H275.619ZM276.146 91.912C275.775 91.912 275.463 91.6 275.463 91.228C275.463 90.844 275.775 90.544 276.146 90.544C276.531 90.544 276.831 90.844 276.831 91.228C276.831 91.6 276.531 91.912 276.146 91.912ZM283.367 95.62C283.367 94.708 282.827 94.084 281.855 94.084C280.655 94.084 279.851 95.092 279.851 96.652V100H278.783V93.208H279.791L279.839 94.252C280.283 93.508 281.051 93.088 282.047 93.088C283.511 93.088 284.447 94.024 284.447 95.512V100H283.367V95.62ZM286.458 100V93.208H287.526V100H286.458ZM286.986 91.912C286.614 91.912 286.302 91.6 286.302 91.228C286.302 90.844 286.614 90.544 286.986 90.544C287.37 90.544 287.67 90.844 287.67 91.228C287.67 91.6 287.37 91.912 286.986 91.912ZM294.206 95.62C294.206 94.708 293.666 94.084 292.694 94.084C291.494 94.084 290.69 95.092 290.69 96.652V100H289.622V93.208H290.63L290.678 94.252C291.122 93.508 291.89 93.088 292.886 93.088C294.35 93.088 295.286 94.024 295.286 95.512V100H294.206V95.62ZM299.734 102.16C298.894 102.16 298.258 102.112 297.406 101.98L297.502 100.996C298.33 101.116 298.906 101.164 299.614 101.164C301.162 101.164 301.882 100.516 301.882 99.088V98.632C301.366 99.304 300.562 99.712 299.626 99.712C297.934 99.712 296.818 98.416 296.818 96.472C296.818 94.444 298.018 93.088 299.83 93.088C300.754 93.088 301.474 93.436 301.906 94.036L301.942 93.208H302.95V99.208C302.95 101.116 301.822 102.16 299.734 102.16ZM297.91 96.412C297.91 97.804 298.69 98.728 299.854 98.728C301.006 98.728 301.882 97.792 301.882 96.58V96.484C301.882 95.08 301.03 94.072 299.842 94.072C298.69 94.072 297.91 95.008 297.91 96.412Z" fill="#666666"/>
</g>
<path fill-rule="evenodd" clip-rule="evenodd" d="M309.646 106.211C309.451 106.407 309.451 106.723 309.646 106.919C309.842 107.114 310.158 107.114 310.354 106.919L314.919 102.354C315.114 102.158 315.114 101.842 314.919 101.646C314.723 101.451 314.407 101.451 314.211 101.646L309.646 106.211ZM312.132 106.939C311.936 107.135 311.936 107.451 312.132 107.646C312.327 107.842 312.644 107.842 312.839 107.646L315.646 104.839C315.842 104.644 315.842 104.327 315.646 104.132C315.451 103.936 315.135 103.936 314.939 104.132L312.132 106.939Z" fill="#808080"/>
<rect y="116" width="16" height="16" rx="8" fill="#008200"/>
<path d="M12.8 121.36L12.24 120.8L6.40001 126.64L3.76001 124L3.20001 124.56L6.40001 127.76L12.8 121.36Z" fill="white" stroke="white"/>
<path d="M23.42 128.12C22.4 128.12 21.236 127.868 20.516 127.484L20.768 126.56C21.632 126.956 22.46 127.124 23.264 127.124C24.692 127.124 25.412 126.572 25.412 125.588C25.412 124.748 24.896 124.268 23.636 123.956L23.036 123.812C21.416 123.404 20.72 122.72 20.72 121.496C20.72 119.888 21.956 119.048 23.84 119.048C24.56 119.048 25.448 119.18 26.252 119.552L26 120.476C25.196 120.128 24.428 120.044 23.84 120.056C22.544 120.056 21.872 120.476 21.872 121.388C21.872 122.132 22.328 122.504 23.588 122.852L24.212 123.02C25.844 123.452 26.564 124.208 26.564 125.492C26.564 127.172 25.4 128.12 23.42 128.12ZM30.391 128.12C28.927 128.12 28.003 127.184 28.003 125.708V121.208H29.071V125.588C29.071 126.512 29.659 127.136 30.595 127.136C31.807 127.136 32.599 126.128 32.599 124.568V121.208H33.667V128H32.647L32.611 126.956C32.167 127.7 31.387 128.12 30.391 128.12ZM38.9308 128.12C37.9948 128.12 37.2748 127.736 36.8428 127.088V130.1H35.7748V121.208H36.7828L36.8188 122.252C37.2868 121.544 38.0308 121.088 39.0268 121.088C40.7428 121.088 41.9188 122.408 41.9188 124.568C41.9188 126.776 40.6948 128.12 38.9308 128.12ZM36.8428 124.592C36.8428 126.164 37.5988 127.136 38.8228 127.136C40.0468 127.136 40.8268 126.188 40.8268 124.592C40.8268 123.02 40.0708 122.072 38.8348 122.072C37.6108 122.072 36.8428 122.996 36.8428 124.592ZM46.712 128.12C45.776 128.12 45.056 127.736 44.624 127.088V130.1H43.556V121.208H44.564L44.6 122.252C45.068 121.544 45.812 121.088 46.808 121.088C48.524 121.088 49.7 122.408 49.7 124.568C49.7 126.776 48.476 128.12 46.712 128.12ZM44.624 124.592C44.624 126.164 45.38 127.136 46.604 127.136C47.828 127.136 48.608 126.188 48.608 124.592C48.608 123.02 47.852 122.072 46.616 122.072C45.392 122.072 44.624 122.996 44.624 124.592ZM53.9053 128.12C52.1173 128.12 50.8453 126.932 50.8453 124.628C50.8453 122.372 52.1293 121.088 53.9173 121.088C55.6813 121.088 57.0133 122.324 57.0133 124.604C57.0133 126.86 55.6693 128.12 53.9053 128.12ZM53.9173 127.136C55.1173 127.136 55.9093 126.248 55.9093 124.616C55.9093 123.008 55.1293 122.072 53.9173 122.072C52.6933 122.072 51.9493 123.032 51.9493 124.616C51.9493 126.272 52.6813 127.136 53.9173 127.136ZM58.638 128V121.208H59.646L59.682 122.06C60.174 121.364 60.954 121.112 61.782 121.112H62.034V122.156H61.626C60.15 122.156 59.706 122.78 59.706 124.652V128H58.638ZM65.5556 128.048C64.1876 128.048 63.6596 127.556 63.6596 126.32V122.192H62.6156V121.208H63.6836L63.7556 119.576H64.7276V121.208H66.6596L66.5756 122.192H64.7276V126.212C64.7276 126.884 64.9196 127.064 65.6516 127.064C65.9396 127.064 66.3236 127.052 66.6716 127.004V127.976C66.3116 128.024 66.1556 128.024 65.5556 128.048ZM73.4983 128V120.116H70.6183V119.12H77.5063V120.116H74.6263V128H73.4983ZM80.633 128.048C78.497 128.048 77.189 126.956 77.189 124.664C77.189 122.516 78.353 121.088 80.261 121.088C82.025 121.088 83.021 122.3 83.021 124.16V124.988L78.293 124.976C78.413 126.488 79.277 127.064 80.849 127.064C81.293 127.064 81.917 127.028 82.553 126.896L82.673 127.856C82.049 127.976 81.209 128.048 80.633 128.048ZM78.305 124.076H81.953C81.941 122.792 81.329 122.048 80.225 122.048C79.073 122.048 78.437 122.84 78.305 124.076ZM83.6488 128L85.9048 124.52L83.7328 121.208H85.0168L86.7448 123.848L88.3288 121.208H89.5408L87.3928 124.604L89.6728 128H88.3528L86.5527 125.228L84.8968 128H83.6488ZM93.0478 128.048C91.6798 128.048 91.1518 127.556 91.1518 126.32V122.192H90.1078V121.208H91.1758L91.2478 119.576H92.2198V121.208H94.1518L94.0678 122.192H92.2198V126.212C92.2198 126.884 92.4118 127.064 93.1438 127.064C93.4318 127.064 93.8158 127.052 94.1638 127.004V127.976C93.8038 128.024 93.6478 128.024 93.0478 128.048Z" fill="#008200"/>
<defs>
<clipPath id="clip0_55482_43947">
<rect width="288" height="48" fill="white" transform="translate(16 32)"/>
</clipPath>
<clipPath id="clip1_55482_43947">
<rect width="288" height="16" fill="white" transform="translate(16 88)"/>
</clipPath>
</defs>
</svg>
