<svg xmlns="http://www.w3.org/2000/svg" width="16" height="16" viewBox="0 0 16 16" fill="none">
  <path fill-rule="evenodd" clip-rule="evenodd" d="M9.16829 1.35744C8.93395 0.931379 8.48626 0.666668 8 0.666668C7.51375 0.666668 7.06605 0.931379 6.83171 1.35744L0.165046 13.4787C-0.0621376 13.8917 -0.0543175 14.394 0.185614 14.7998C0.425545 15.2056 0.861919 15.4545 1.33333 15.4545H14.6667C15.1381 15.4545 15.5745 15.2056 15.8144 14.7998C16.0543 14.394 16.0621 13.8917 15.835 13.4787L9.16829 1.35744Z" fill="#B16201"/>
  <path d="M7.32768 10.5706L7.10169 5H8.9096L8.68362 10.5706H7.32768ZM7 12.4237C7 11.8814 7.45198 11.4294 8.00565 11.4294C8.54802 11.4294 9 11.8814 9 12.4237C9 12.9774 8.54802 13.4294 8.00565 13.4294C7.45198 13.4294 7 12.9774 7 12.4237Z" fill="white"/>
</svg>