<svg width="80" height="31" viewBox="0 0 80 31" fill="none" xmlns="http://www.w3.org/2000/svg">
<path d="M40 0.0275879C17.7988 0.0275879 0 6.68314 0 15.0276C0 23.322 17.9432 30.0276 40 30.0276C62.0568 30.0276 80 23.2998 80 15.0276C80 6.75536 62.0568 0.0275879 40 0.0275879Z" fill="#00095B"/>
<path d="M63.4983 10.7221C63.5511 10.6304 63.4955 10.5637 63.3788 10.5637C62.7761 10.5637 61.9845 10.5637 61.3568 10.5637C61.2068 10.5637 61.129 10.5832 61.0596 10.7221C60.829 11.1665 58.0042 15.3998 57.4765 16.2221C57.3876 16.3471 57.2793 16.3304 57.2682 16.1887C57.2154 15.6998 56.7932 15.1387 56.1293 14.8693C55.6238 14.6637 55.1266 14.6276 54.6128 14.6943C53.6851 14.8193 52.8546 15.3082 52.1268 15.8609C51.0297 16.6943 50.0825 17.7748 48.8632 18.5748C48.1966 19.0082 47.2827 19.3887 46.6717 18.8221C46.1189 18.3082 46.18 17.1693 47.0272 16.2887C47.1161 16.1971 47.2244 16.2748 47.2077 16.3554C47.1272 16.7526 47.2272 17.1498 47.5272 17.4276C47.8966 17.7582 48.4243 17.7971 48.8771 17.5748C49.4104 17.3109 49.7242 16.7998 49.8159 16.2193C49.9576 15.3193 49.2659 14.5276 48.3993 14.4637C47.6966 14.4137 47.0216 14.6582 46.3634 15.2026C46.0328 15.4748 45.8467 15.6776 45.5606 16.0832C45.4912 16.1832 45.3856 16.1943 45.3884 16.0471C45.4218 14.8971 44.944 14.2498 43.9941 14.2276C43.2552 14.2109 42.4664 14.6109 41.8526 15.0998C41.1776 15.6415 40.5888 16.3582 39.9582 17.0332C39.8805 17.1165 39.811 17.1137 39.7888 16.9526C39.7694 16.1887 39.5777 15.4526 39.225 14.9276C39.1 14.7443 38.8361 14.6554 38.6167 14.7776C38.5139 14.8332 38.1611 14.9971 37.9028 15.2054C37.7751 15.3109 37.7251 15.4637 37.7806 15.6582C38.1223 16.7971 38.0473 18.0915 37.5834 19.1859C37.1584 20.1887 36.3335 21.0915 35.3641 21.3971C34.7253 21.5998 34.0614 21.4998 33.6504 20.9332C33.0865 20.1526 33.3143 18.7915 34.1559 17.6637C34.8975 16.6693 35.9724 16.0387 37.0418 15.6332C37.1668 15.5859 37.1946 15.5026 37.1584 15.3971C37.1001 15.2221 37.0085 14.9804 36.9696 14.8721C36.8724 14.6109 36.5974 14.5693 36.2613 14.6054C35.4836 14.6971 34.7808 14.9637 34.0892 15.3332C32.2727 16.3054 31.3644 18.1859 30.9644 19.1943C30.7728 19.6776 30.6089 19.9804 30.395 20.2471C30.1089 20.6054 29.7506 20.9332 29.0923 21.5109C29.034 21.5637 28.9896 21.6748 29.0396 21.7776C29.1062 21.9165 29.4479 22.3998 29.5451 22.4415C29.6506 22.4943 29.7756 22.4193 29.8256 22.3859C30.2867 22.0748 30.8339 21.5804 31.1033 21.2443C31.1977 21.1304 31.295 21.1776 31.345 21.3526C31.5949 22.2498 32.2532 22.9804 33.1643 23.2859C34.828 23.8471 36.5557 23.0359 37.8584 21.6193C38.6861 20.7193 38.9861 20.1415 39.3027 19.7498C39.8416 19.0832 40.9026 17.5915 42.1664 16.6332C42.6303 16.2804 43.1775 16.0109 43.4552 16.1887C43.6774 16.3332 43.7469 16.6665 43.3941 17.3109C42.1053 19.6637 40.2082 22.4304 39.861 23.0998C39.7971 23.2165 39.8527 23.3082 39.9749 23.3082C40.6499 23.3054 41.3165 23.3054 41.9303 23.3054C42.0331 23.2998 42.0775 23.2554 42.1275 23.1832C43.1164 21.6359 44.0469 20.1609 45.044 18.6387C45.0996 18.5498 45.1523 18.6193 45.1523 18.6582C45.1718 19.0109 45.2607 19.4943 45.469 19.8137C45.8467 20.3998 46.38 20.6526 46.9744 20.6582C47.4466 20.6637 47.6855 20.5915 48.1938 20.4026C48.6076 20.2498 48.941 20.0471 49.1937 19.8665C49.3437 19.7637 49.3687 19.9359 49.3659 19.9637C49.1382 21.1915 49.4187 22.6498 50.6408 23.2526C52.1018 23.9721 53.7073 22.9609 54.6322 22.0471C54.7239 21.9582 54.8183 21.9693 54.8294 22.1582C54.8489 22.5082 55.0072 22.9221 55.2961 23.2109C56.071 23.9887 57.632 23.6804 59.2014 22.4665C60.2068 21.6887 61.2623 20.5915 62.2123 19.4276C62.2484 19.3832 62.2734 19.3109 62.2067 19.2359C62.0623 19.0832 61.8512 18.9109 61.7095 18.7776C61.6429 18.7221 61.5484 18.7387 61.4929 18.7804C60.5179 19.7082 59.6402 20.7665 58.3709 21.6415C57.9431 21.9415 57.2598 22.1804 56.9543 21.7665C56.8349 21.6054 56.8487 21.3832 56.9654 21.0915C57.3376 20.1693 63.1955 11.2498 63.4983 10.7221ZM55.7544 18.2026C55.7655 18.2721 55.8544 18.3359 55.9432 18.3693C55.9738 18.3804 55.9905 18.4026 55.9571 18.4748C55.7072 19.0082 55.4794 19.3165 55.1655 19.7804C54.8794 20.2082 54.5545 20.5443 54.1628 20.8637C53.5712 21.3526 52.7518 21.8859 52.0741 21.5276C51.7741 21.3721 51.6435 20.9498 51.6491 20.6082C51.6658 19.6471 52.0907 18.6637 52.8796 17.6943C53.8406 16.5109 54.9044 15.8971 55.6016 16.2332C56.3238 16.5776 56.0932 17.4137 55.771 18.0693C55.7433 18.1193 55.7433 18.1609 55.7544 18.2026Z" fill="white"/>
<path d="M21.0068 23.2804C18.8236 23.297 16.8988 21.947 16.6765 19.6082C16.5543 18.3137 16.921 17.1582 17.6515 16.2082C18.3014 15.3609 19.4014 14.6582 20.3318 14.4859C20.6346 14.4304 21.0429 14.4665 21.2096 14.6665C21.4734 14.9748 21.3984 15.3109 21.1346 15.447C20.4235 15.8109 19.568 16.4304 19.1458 17.2776C18.8014 17.9693 18.732 18.8054 19.2569 19.5998C20.1346 20.9248 22.5789 20.9609 24.8538 18.847C25.4176 18.3304 25.9204 17.8332 26.4342 17.2443C27.4341 16.0998 27.7674 15.6832 29.1007 13.8359C29.1173 13.8137 29.1201 13.7859 29.1146 13.772C29.1035 13.7498 29.084 13.7415 29.0451 13.7387C28.1563 13.7637 27.3814 14.0276 26.6286 14.5915C26.412 14.7498 26.1009 14.7276 25.962 14.5193C25.8092 14.2832 25.9204 13.9776 26.1703 13.8054C27.3814 12.9637 28.7035 12.8109 30.0562 12.5832C30.0562 12.5832 30.1506 12.5887 30.2284 12.4859C30.7839 11.7748 31.2005 11.1304 31.7922 10.4109C32.3866 9.68037 33.1587 9.01093 33.7448 8.50537C34.567 7.79982 35.0919 7.56093 35.628 7.27204C35.7697 7.19982 35.6113 7.11093 35.5669 7.11093C32.581 6.54982 29.4757 5.82204 26.5092 6.92204C24.4538 7.68871 23.5538 9.31926 23.9871 10.4054C24.2955 11.1776 25.3093 11.3026 26.262 10.8387C27.0508 10.4526 27.7813 9.8276 28.3007 9.02482C28.5896 8.58037 29.2007 8.89982 28.8701 9.67482C28.0035 11.7165 26.3425 13.3332 24.3232 13.4026C22.6039 13.4582 21.4957 12.1943 21.4984 10.6332C21.504 7.55537 24.9315 5.5276 28.5313 5.22482C32.8671 4.86649 36.9751 6.02204 41.2776 6.54426C44.5774 6.94426 47.7383 6.9526 51.0547 6.19149C51.4464 6.10537 51.7213 6.35537 51.6963 6.7526C51.663 7.32482 51.2214 7.87482 50.1298 8.47204C48.8882 9.1526 47.5883 9.36093 46.2328 9.37204C42.9525 9.39982 39.8944 8.11926 36.7335 7.43315C36.739 7.57204 36.7724 7.73593 36.6585 7.82482C34.9058 9.11648 33.3226 10.4304 32.2616 12.272C32.2255 12.3137 32.2449 12.3554 32.306 12.3498C33.2282 12.2998 34.0559 12.2776 34.9142 12.2082C35.0642 12.197 35.0697 12.1582 35.0558 12.047C34.9808 11.4109 35.1642 10.6887 35.7252 10.1887C36.2974 9.67482 37.014 9.61649 37.489 9.98593C38.0278 10.4054 37.9806 11.1637 37.6862 11.7304C37.3862 12.3054 36.889 12.6137 36.4141 12.7637C36.4141 12.7637 36.3141 12.7859 36.328 12.8776C36.3474 13.022 36.9946 13.3832 37.0501 13.4776C37.1029 13.5693 37.0751 13.7109 36.9779 13.8193C36.9085 13.897 36.8029 13.972 36.664 13.9693C36.5529 13.9665 36.4863 13.9276 36.3418 13.8526C36.0502 13.6943 35.6863 13.4359 35.4447 13.1304C35.3614 13.0276 35.3197 13.0248 35.1142 13.0359C34.1837 13.0887 32.7338 13.2304 31.7505 13.3526C31.5116 13.3832 31.4783 13.4276 31.4283 13.5082C29.8617 16.0915 28.1896 18.8776 26.3509 20.7443C24.3816 22.7415 22.7428 23.2665 21.0068 23.2804ZM35.9363 11.7998C35.9613 11.9332 36.0141 11.9582 36.0724 11.947C36.3696 11.8887 36.6974 11.6415 36.8918 11.3582C37.0668 11.0998 37.1501 10.7276 36.9751 10.5776C36.8196 10.4443 36.5641 10.4804 36.378 10.647C36.003 10.9776 35.8891 11.447 35.9363 11.7998Z" fill="white"/>
<path d="M39.9999 28.7192C18.8291 28.7192 1.66919 22.5914 1.66919 15.0303C1.66919 7.46921 18.8291 1.34143 39.9999 1.34143C61.1678 1.34143 78.325 7.46921 78.325 15.0303C78.325 22.5914 61.1651 28.7192 39.9999 28.7192ZM39.9999 2.48032C19.5735 2.48032 3.0191 8.12476 3.0191 15.0303C3.0191 21.9387 19.5763 27.5831 39.9999 27.5831C60.4234 27.5831 76.9806 21.9387 76.9806 15.0303C76.9779 8.12476 60.4234 2.48032 39.9999 2.48032Z" fill="white"/>
</svg>
