<svg xmlns="http://www.w3.org/2000/svg" width="80" height="31" viewBox="0 0 112 40" fill="none">
  <title>Lincoln Logo</title>
  <g id="Logo">
    <g id="lincoln">
      <path
        clipRule="evenodd"
        d="M54.575 16.3447L54.5733 20.7969L54.4407 20.6378C52.8535 18.7509 51.19 16.7744 51.153 16.7329L51.1177 16.6923C50.9892 16.5441 50.8129 16.3414 50.5032 16.3405L49.4537 16.34L49.4512 23.6466L51.0733 23.6461L51.0747 19.0704C53.4391 21.8757 54.5769 23.2261 54.6106 23.2648C54.7554 23.4261 54.9882 23.6419 55.3343 23.648H56.1963L56.1985 16.3447H54.575Z"
        fill="#22292B"
        fillRule="evenodd"
      />
      <path
        clipRule="evenodd"
        d="M110.38 16.3577L110.379 20.8113L110.245 20.6514C108.64 18.7436 106.995 16.7874 106.957 16.7454L106.92 16.7034C106.793 16.556 106.616 16.3544 106.307 16.3535L105.258 16.353L105.257 23.6591L106.877 23.6596L106.879 19.0834C109.392 22.0641 110.386 23.2419 110.416 23.2778C110.559 23.4391 110.79 23.6544 111.138 23.6605L112 23.661L112.002 16.3577H110.38Z"
        fill="#22292B"
        fillRule="evenodd"
      />
      <path
        clipRule="evenodd"
        d="M39.9463 16.3408L39.9443 23.6442L41.5839 23.6447L41.5861 16.3414L39.9463 16.3408Z"
        fill="#22292B"
        fillRule="evenodd"
      />
      <path
        clipRule="evenodd"
        d="M81.1725 22.2827C79.8518 22.2821 78.855 21.2935 78.8553 19.9822C78.8558 18.6932 79.8438 17.7206 81.1543 17.7215C82.4747 17.7215 83.4707 18.7104 83.4704 20.0209C83.4693 21.3104 82.4821 22.283 81.1725 22.2827ZM85.1391 19.92C85.1062 17.8208 83.4002 16.239 81.171 16.2384C78.9351 16.2376 77.1822 17.8987 77.1816 20.0192C77.1805 22.1534 78.8879 23.7634 81.1506 23.7625C83.3517 23.7639 85.104 22.1409 85.1382 20.0746C85.1493 20.0198 85.1487 19.9664 85.1391 19.92Z"
        fill="#22292B"
        fillRule="evenodd"
      />
      <path
        clipRule="evenodd"
        d="M94.3221 22.1742L94.3246 16.3537L92.6823 16.3529L92.6807 23.6565L98.2397 23.6576V22.1756L94.3221 22.1742Z"
        fill="#22292B"
        fillRule="evenodd"
      />
      <path
        clipRule="evenodd"
        d="M32.5738 23.6421L27.0137 23.6416L27.0151 16.3383H28.6565L28.6551 22.1587L32.5738 22.1598V23.6421Z"
        fill="#22292B"
        fillRule="evenodd"
      />
      <path
        clipRule="evenodd"
        d="M69.2136 21.2058L68.9174 21.4703C68.3547 21.9715 67.8039 22.3069 66.9427 22.306C65.6565 22.3055 64.6492 21.2837 64.6503 19.9794C64.6503 18.6742 65.6361 17.6917 66.9438 17.6917C67.6596 17.6917 68.2333 17.9275 68.8592 18.4826L69.1676 18.7568L70.2932 17.6302L69.9821 17.3585C69.3052 16.7634 68.4692 16.2116 66.9549 16.2111C64.7251 16.2097 62.9791 17.8816 62.9785 20.0172C62.978 22.1659 64.6735 23.7869 66.9226 23.7875C68.4799 23.7875 69.3681 23.1465 70.0326 22.5182L70.3341 22.232L69.2136 21.2058Z"
        fill="#22292B"
        fillRule="evenodd"
      />
    </g>
    <path
      clipRule="evenodd"
      d="M8.90556 36.0337C8.7031 37.0148 8.44934 37.0407 7.70515 37.1366C7.56558 37.1547 7.43539 37.17 7.30409 37.1845L7.30354 37.187C7.20976 37.2 7.18273 37.2281 7.15266 37.4206C7.09446 37.798 7.06109 37.9798 6.94358 38.6898C6.94358 38.6898 6.92097 38.9638 6.625 39.0272C6.8567 32.9105 6.95296 23.0367 6.95296 22.4693C6.95296 21.2657 7.08646 20.8694 8.68462 20.7787C9.44811 20.7356 10.568 20.6452 11.3668 20.5882C11.3147 20.7698 11.2656 20.8227 11.1842 20.8569C11.0184 20.9264 10.9028 20.9601 10.6408 21.0585C10.5045 21.1091 10.4243 21.1581 10.4265 21.2857C10.4265 21.316 10.4262 21.3341 10.4262 21.3472L10.4243 21.3477C10.2968 29.187 9.05561 35.307 8.90556 36.0337ZM4.75731 38.6899C4.64036 37.9799 4.60671 37.798 4.54851 37.4206C4.51817 37.2254 4.49141 37.1993 4.3946 37.1862L4.39377 37.1845C4.26247 37.1701 4.13283 37.1548 3.99299 37.1367C3.24852 37.0407 2.99531 37.0149 2.7923 36.0337C2.64253 35.307 1.4013 29.187 1.27386 21.3478L1.27166 21.3472C1.27166 21.3342 1.27138 21.3161 1.27138 21.2858C1.27386 21.1581 1.19332 21.1092 1.05761 21.0586C0.795298 20.9601 0.67945 20.9265 0.514228 20.8569C0.432858 20.8227 0.384036 20.7704 0.333008 20.593C1.13264 20.6498 2.26299 20.7362 3.01683 20.7788C4.61471 20.8695 4.74849 21.2658 4.74849 22.4694C4.74849 23.0353 4.84585 32.8975 5.07893 39.0286C4.78021 38.9661 4.75731 38.6899 4.75731 38.6899ZM2.79341 3.96526C2.99642 2.98355 3.24963 2.95769 3.99409 2.86257C4.13394 2.84422 4.26358 2.82892 4.39487 2.81446L4.39542 2.81391C4.49252 2.80056 4.51927 2.77469 4.54961 2.57918C4.60781 2.20235 4.64146 2.01991 4.75842 1.30991C4.75842 1.30991 4.78131 1.0357 5.07865 0.97229C4.85082 7.16153 4.74959 17.0042 4.74959 17.5296C4.74959 18.7332 4.61581 19.1298 3.01793 19.2199C2.21334 19.2655 1.04106 19.3581 0.333008 19.4096C0.384864 19.2294 0.43341 19.1763 0.515331 19.1418C0.680553 19.0728 0.796401 19.0386 1.05872 18.9407C1.19442 18.8901 1.27497 18.8409 1.27248 18.7127C1.27248 18.6832 1.27276 18.6643 1.27276 18.6517L1.27497 18.6512C1.4024 10.8111 2.64363 4.6914 2.79341 3.96526ZM6.94496 1.30996C7.06247 2.01997 7.09584 2.20241 7.15404 2.57924C7.18411 2.77252 7.21114 2.79978 7.30492 2.81368L7.30547 2.81452C7.43677 2.82898 7.56696 2.84427 7.70653 2.86263C8.45072 2.95774 8.70448 2.9836 8.90694 3.96532C9.05699 4.69145 10.2982 10.8112 10.4257 18.6512L10.4276 18.6521C10.4276 18.6649 10.4279 18.6832 10.4279 18.7127C10.4257 18.8409 10.5059 18.8901 10.6422 18.9408C10.9042 19.0386 11.0198 19.0729 11.1856 19.1418C11.2678 19.1766 11.3163 19.2297 11.3684 19.4121C10.7288 19.3654 9.4837 19.265 8.686 19.22C7.08784 19.1299 6.95434 18.7333 6.95434 17.5296C6.95434 16.9695 6.85752 7.15297 6.625 0.972344C6.92234 1.03603 6.94496 1.30996 6.94496 1.30996ZM11.701 19.9995C11.6874 19.1932 11.6877 19.2205 11.6839 18.9215C11.6839 18.921 11.6839 18.921 11.6839 18.9201C11.5984 11.2872 10.6307 4.97591 10.1665 2.13673C9.97565 0.972581 9.88849 0.856611 8.65746 0.673895C8.03877 0.581564 7.48408 0.5176 6.95421 0.478943V0.480056L6.95449 0.480334C6.47896 0.446961 5.852 0.444458 5.852 0.444458C5.852 0.444458 5.222 0.447517 4.7462 0.480612L4.74675 0.480056V0.478943C4.21743 0.5176 3.66246 0.581564 3.0435 0.673895C1.81192 0.856611 1.72559 0.972581 1.53472 2.13673C1.06967 4.97591 0.10316 11.2872 0.0176531 18.9201C0.0176531 18.921 0.0173773 18.921 0.0173773 18.9215C0.0132398 19.2205 0.0137915 19.1932 0 19.9995C0.0137915 20.8057 0.0132398 20.7784 0.0173773 21.0774C0.0173773 21.078 0.0176531 21.0782 0.0176531 21.0788C0.10316 28.7114 1.06967 35.023 1.53472 37.8622C1.72559 39.0266 1.81192 39.142 3.0435 39.3253C3.60178 39.4079 4.10655 39.4674 4.5887 39.5061C4.59035 39.5061 4.59228 39.5075 4.59422 39.5075C5.07333 39.5528 5.852 39.5556 5.852 39.5556C5.852 39.5556 6.63066 39.5528 7.11033 39.5075C7.11254 39.5075 7.1153 39.5061 7.11723 39.5055C7.59827 39.4669 8.10139 39.4079 8.65746 39.3253C9.88849 39.142 9.97565 39.0266 10.1665 37.8622C10.6307 35.023 11.5984 28.7114 11.6839 21.0788C11.6839 21.0782 11.6839 21.078 11.6839 21.0774C11.6877 20.7784 11.6874 20.8057 11.701 19.9995Z"
      fill="#22292B"
      fillRule="evenodd"
      id="star"
    />
  </g>
</svg>