<svg width="113" height="40" viewBox="0 0 113 40" fill="none" xmlns="http://www.w3.org/2000/svg">
<path fill-rule="evenodd" clip-rule="evenodd" d="M55.0615 16.042L55.0598 20.5339L54.926 20.3734C53.3247 18.4696 51.6463 16.4755 51.609 16.4337L51.5734 16.3927C51.4437 16.2432 51.2659 16.0386 50.9534 16.0378L49.8945 16.0372L49.892 23.409L51.5286 23.4084L51.53 18.792C53.9155 21.6222 55.0634 22.9848 55.0974 23.0238C55.2435 23.1865 55.4784 23.4042 55.8276 23.4104H56.6973L56.6995 16.042H55.0615Z" fill="#22292B"/>
<path fill-rule="evenodd" clip-rule="evenodd" d="M111.364 16.0548L111.363 20.5481L111.227 20.3867C109.608 18.4619 107.948 16.4883 107.91 16.4459L107.873 16.4036C107.745 16.2548 107.566 16.0514 107.255 16.0506L106.196 16.05L106.195 23.4213L107.83 23.4218L107.831 18.8048C110.367 21.8121 111.369 23.0004 111.4 23.0366C111.545 23.1993 111.778 23.4165 112.128 23.4227L112.998 23.4232L113 16.0548H111.364Z" fill="#22292B"/>
<path fill-rule="evenodd" clip-rule="evenodd" d="M40.3022 16.0382L40.3003 23.4066L41.9544 23.4072L41.9567 16.0388L40.3022 16.0382Z" fill="#22292B"/>
<path fill-rule="evenodd" clip-rule="evenodd" d="M81.8961 22.0329C80.5636 22.0323 79.5579 21.0349 79.5582 19.7119C79.5587 18.4114 80.5556 17.4302 81.8777 17.431C83.2099 17.431 84.2148 18.4288 84.2145 19.7509C84.2134 21.052 83.2174 22.0332 81.8961 22.0329ZM85.898 19.6491C85.8649 17.5313 84.1437 15.9353 81.8945 15.9347C79.6387 15.9339 77.8702 17.6098 77.8697 19.7493C77.8685 21.9025 79.5912 23.5268 81.874 23.526C84.0947 23.5274 85.8627 21.8899 85.8972 19.8051C85.9083 19.7498 85.9077 19.696 85.898 19.6491Z" fill="#22292B"/>
<path fill-rule="evenodd" clip-rule="evenodd" d="M95.1629 21.9232L95.1654 16.0509L93.5085 16.05L93.5068 23.4187L99.1155 23.4199V21.9246L95.1629 21.9232Z" fill="#22292B"/>
<path fill-rule="evenodd" clip-rule="evenodd" d="M32.8642 23.4042L27.2545 23.4037L27.2559 16.0352H28.912L28.9106 21.9076L32.8642 21.9087V23.4042Z" fill="#22292B"/>
<path fill-rule="evenodd" clip-rule="evenodd" d="M69.8306 20.9465L69.5318 21.2133C68.964 21.7189 68.4083 22.0573 67.5395 22.0564C66.2418 22.0559 65.2255 21.025 65.2266 19.7091C65.2266 18.3923 66.2212 17.401 67.5406 17.401C68.2628 17.401 68.8416 17.6389 69.473 18.199L69.7842 18.4756L70.9199 17.339L70.6059 17.0648C69.923 16.4644 69.0795 15.9077 67.5517 15.9072C65.302 15.9057 63.5405 17.5926 63.5399 19.7472C63.5394 21.915 65.25 23.5506 67.5192 23.5511C69.0904 23.5511 69.9865 22.9044 70.6569 22.2705L70.961 21.9818L69.8306 20.9465Z" fill="#22292B"/>
<path fill-rule="evenodd" clip-rule="evenodd" d="M8.98494 35.9065C8.78068 36.8964 8.52466 36.9225 7.77383 37.0193C7.63302 37.0375 7.50167 37.0529 7.3692 37.0675L7.36865 37.07C7.27403 37.0832 7.24676 37.1116 7.21642 37.3057C7.1577 37.6865 7.12403 37.87 7.00548 38.5863C7.00548 38.5863 6.98266 38.8627 6.68406 38.9267C6.91782 32.7555 7.01494 22.7936 7.01494 22.2212C7.01494 21.0068 7.14963 20.607 8.76204 20.5155C9.53234 20.472 10.6622 20.3809 11.4681 20.3233C11.4155 20.5066 11.366 20.5599 11.2839 20.5944C11.1166 20.6645 11 20.6985 10.7357 20.7978C10.5982 20.8489 10.5172 20.8983 10.5194 21.027C10.5194 21.0576 10.5191 21.0759 10.5191 21.0891L10.5172 21.0896C10.3886 28.9987 9.13633 35.1733 8.98494 35.9065ZM4.79972 38.5864C4.68173 37.8701 4.64777 37.6865 4.58906 37.3058C4.55844 37.1088 4.53145 37.0825 4.43377 37.0693L4.43294 37.0676C4.30047 37.053 4.16968 37.0376 4.02858 37.0193C3.27748 36.9225 3.02201 36.8964 2.81719 35.9065C2.66608 35.1734 1.41379 28.9988 1.28522 21.0897L1.28299 21.0891C1.28299 21.0759 1.28271 21.0577 1.28271 21.0271C1.28522 20.8983 1.20396 20.8489 1.06704 20.7979C0.802387 20.6985 0.685506 20.6646 0.518812 20.5944C0.436717 20.5599 0.38746 20.5072 0.335976 20.3282C1.14273 20.3854 2.28316 20.4727 3.04372 20.5156C4.65584 20.6071 4.79081 21.0069 4.79081 22.2213C4.79081 22.7923 4.88905 32.7424 5.1242 38.9281C4.82282 38.865 4.79972 38.5864 4.79972 38.5864ZM2.81831 3.55219C3.02313 2.56173 3.2786 2.53563 4.0297 2.43967C4.17079 2.42115 4.30158 2.40572 4.43405 2.39113L4.43461 2.39057C4.53256 2.3771 4.55956 2.35101 4.59017 2.15376C4.64889 1.77356 4.68284 1.5895 4.80083 0.873167C4.80083 0.873167 4.82393 0.596511 5.12393 0.532537C4.89406 6.77695 4.79193 16.7074 4.79193 17.2374C4.79193 18.4518 4.65696 18.8519 3.04483 18.9428C2.23307 18.9888 1.05034 19.0823 0.335976 19.1342C0.388295 18.9524 0.437273 18.8988 0.519925 18.864C0.68662 18.7944 0.803501 18.7599 1.06815 18.6611C1.20507 18.6101 1.28633 18.5604 1.28383 18.431C1.28383 18.4013 1.2841 18.3822 1.2841 18.3696L1.28633 18.369C1.4149 10.4591 2.6672 4.2848 2.81831 3.55219ZM7.00687 0.873222C7.12542 1.58955 7.1591 1.77362 7.21781 2.15381C7.24815 2.34882 7.27542 2.37631 7.37004 2.39034L7.37059 2.39119C7.50306 2.40578 7.63441 2.42121 7.77523 2.43973C8.52605 2.53569 8.78207 2.56178 8.98634 3.55225C9.13773 4.28485 10.39 10.4591 10.5186 18.3691L10.5205 18.3699C10.5205 18.3828 10.5208 18.4014 10.5208 18.4311C10.5186 18.5604 10.5996 18.6101 10.737 18.6612C11.0014 18.7599 11.118 18.7945 11.2853 18.864C11.3682 18.8991 11.4172 18.9527 11.4698 19.1368C10.8244 19.0896 9.56824 18.9883 8.76343 18.9429C7.15102 18.852 7.01633 18.4519 7.01633 17.2375C7.01633 16.6724 6.91865 6.76831 6.68406 0.532592C6.98405 0.596846 7.00687 0.873222 7.00687 0.873222ZM11.8053 19.7293C11.7916 18.9159 11.7919 18.9434 11.788 18.6418C11.788 18.6412 11.788 18.6412 11.788 18.6404C11.7017 10.9394 10.7255 4.57185 10.2572 1.70736C10.0646 0.53283 9.97663 0.415827 8.73463 0.231482C8.11043 0.138328 7.5508 0.0737938 7.0162 0.0347925V0.0359149L7.01648 0.0361954C6.53671 0.00252526 5.90416 0 5.90416 0C5.90416 0 5.26855 0.00308643 4.78851 0.036476L4.78906 0.0359149V0.0347925C4.25503 0.0737938 3.69511 0.138328 3.07063 0.231482C1.82808 0.415827 1.74097 0.53283 1.5484 1.70736C1.0792 4.57185 0.10408 10.9394 0.0178105 18.6404C0.0178105 18.6412 0.0175322 18.6412 0.0175322 18.6418C0.0133578 18.9434 0.0139144 18.9159 0 19.7293C0.0139144 20.5427 0.0133578 20.5152 0.0175322 20.8169C0.0175322 20.8174 0.0178105 20.8177 0.0178105 20.8183C0.10408 28.5189 1.0792 34.8868 1.5484 37.7513C1.74097 38.9261 1.82808 39.0425 3.07063 39.2274C3.63389 39.3108 4.14316 39.3708 4.6296 39.4098C4.63127 39.4098 4.63322 39.4112 4.63517 39.4112C5.11856 39.457 5.90416 39.4598 5.90416 39.4598C5.90416 39.4598 6.68977 39.457 7.17372 39.4112C7.17594 39.4112 7.17872 39.4098 7.18067 39.4093C7.66601 39.3702 8.17361 39.3108 8.73463 39.2274C9.97663 39.0425 10.0646 38.9261 10.2572 37.7513C10.7255 34.8868 11.7017 28.5189 11.788 20.8183C11.788 20.8177 11.788 20.8174 11.788 20.8169C11.7919 20.5152 11.7916 20.5427 11.8053 19.7293Z" fill="#22292B"/>
</svg>
