<svg xmlns="http://www.w3.org/2000/svg" width="80" height="31" viewBox="0 0 80 31" fill="none">
  <path d="M79.9656 8.98985C80.056 8.83494 79.9613 8.71875 79.7633 8.71875C78.7348 8.71875 77.3878 8.72305 76.3205 8.72305C76.0665 8.72305 75.9331 8.75318 75.8126 8.98985C75.4167 9.74721 70.601 16.9636 69.7058 18.3621C69.5552 18.5773 69.3701 18.5472 69.3486 18.3019C69.2582 17.4714 68.5395 16.5118 67.4077 16.0556C66.547 15.7071 65.6991 15.6425 64.8255 15.7587C63.2418 15.9696 61.8302 16.8087 60.5907 17.7468C58.723 19.1668 57.1091 21.0086 55.0262 22.3727C53.89 23.1128 52.3321 23.7583 51.2906 22.7944C50.3481 21.9209 50.4557 19.9801 51.8975 18.4783C52.0481 18.3191 52.2331 18.4525 52.203 18.5945C52.0653 19.2744 52.2331 19.95 52.7496 20.4234C53.3779 20.9871 54.2774 21.0516 55.0477 20.6729C55.9558 20.2211 56.4894 19.3519 56.6486 18.3664C56.8896 16.8345 55.7105 15.4833 54.2343 15.3757C53.0336 15.2897 51.8845 15.7071 50.7656 16.6323C50.2061 17.097 49.8834 17.4413 49.4014 18.1341C49.2852 18.3019 49.1001 18.3191 49.1087 18.0695C49.1647 16.1073 48.3556 15.0057 46.7331 14.9669C45.4765 14.9368 44.1294 15.621 43.0837 16.4558C41.9346 17.3767 40.9318 18.6031 39.8559 19.7521C39.7225 19.8941 39.6063 19.8855 39.5676 19.6101C39.5332 18.3105 39.2104 17.054 38.6079 16.1589C38.397 15.8491 37.9494 15.6942 37.5707 15.905C37.3986 15.9997 36.7918 16.2794 36.3528 16.6323C36.1333 16.813 36.0516 17.0712 36.1462 17.4068C36.7272 19.3476 36.5981 21.5551 35.8105 23.4184C35.0875 25.1267 33.6803 26.6672 32.0277 27.1879C30.9389 27.5322 29.807 27.3644 29.1055 26.4005C28.1458 25.0708 28.5331 22.7514 29.9662 20.8322C31.2315 19.141 33.0605 18.0652 34.8853 17.3724C35.1005 17.2907 35.1435 17.153 35.0832 16.9679C34.9843 16.6667 34.825 16.2579 34.7605 16.0729C34.5926 15.6296 34.1235 15.5565 33.5512 15.6167C32.2256 15.7716 31.0292 16.2235 29.8457 16.856C26.7514 18.5128 25.2021 21.7186 24.5222 23.4356C24.1951 24.2618 23.9154 24.7739 23.5539 25.23C23.0676 25.841 22.4521 26.4005 21.3332 27.3859C21.2299 27.4762 21.1567 27.6656 21.2428 27.8377C21.359 28.0744 21.94 28.8963 22.1035 28.9694C22.2843 29.0598 22.4995 28.935 22.5812 28.8748C23.3645 28.3455 24.3027 27.5021 24.7632 26.9297C24.9224 26.7361 25.0903 26.8179 25.1763 27.1148C25.6067 28.6424 26.7256 29.8903 28.2749 30.411C31.111 31.3663 34.0547 29.9807 36.2753 27.5709C37.6869 26.039 38.1948 25.0536 38.737 24.3823C39.6537 23.2462 41.4612 20.7031 43.6173 19.0722C44.4092 18.4697 45.3431 18.0136 45.8121 18.3148C46.1909 18.5601 46.3114 19.1281 45.7046 20.2297C43.5097 24.2403 40.2777 28.9522 39.6838 30.0969C39.5762 30.2948 39.6709 30.4497 39.8775 30.4497C41.0265 30.4454 42.167 30.4454 43.2085 30.4454C43.3806 30.4368 43.4581 30.3594 43.5484 30.2346C45.2355 27.5967 46.8192 25.0837 48.5191 22.4889C48.6138 22.334 48.6999 22.4545 48.7042 22.5233C48.7386 23.1257 48.8892 23.952 49.2464 24.4898C49.8877 25.4882 50.8 25.9185 51.8114 25.9271C52.6162 25.9357 53.0207 25.8152 53.89 25.4925C54.5958 25.23 55.1639 24.8857 55.5943 24.5759C55.8482 24.3995 55.8912 24.6964 55.8869 24.7394C55.4953 26.8351 55.9773 29.3137 58.0602 30.3465C60.552 31.5729 63.2891 29.8473 64.8642 28.2895C65.0192 28.1389 65.1827 28.1561 65.1999 28.4789C65.2343 29.0727 65.5012 29.7784 65.9961 30.2733C67.3173 31.5987 69.9769 31.0737 72.6495 29.0039C74.3666 27.6785 76.1612 25.8066 77.7837 23.8272C77.8439 23.7497 77.887 23.6292 77.7708 23.5044C77.5255 23.2462 77.1683 22.9493 76.923 22.7212C76.8111 22.6266 76.6475 22.6524 76.5529 22.7255C74.8917 24.3048 73.394 26.1078 71.2293 27.601C70.502 28.1088 69.3357 28.5219 68.815 27.8162C68.6127 27.5408 68.6342 27.1621 68.8365 26.6629C69.4605 25.088 79.4492 9.88921 79.9656 8.98985ZM66.7664 21.7358C66.788 21.852 66.9386 21.9639 67.0892 22.0198C67.1409 22.037 67.171 22.0758 67.1107 22.2006C66.6847 23.1085 66.2973 23.6335 65.7637 24.4253C65.2731 25.1568 64.7222 25.7249 64.0552 26.2714C63.0481 27.1062 61.6494 28.0098 60.4918 27.4031C59.9796 27.1363 59.7558 26.4177 59.7645 25.8367C59.7903 24.2015 60.5176 22.519 61.8603 20.8709C63.5 18.8527 65.3118 17.807 66.4996 18.3794C67.7304 18.9646 67.3388 20.3889 66.788 21.5078C66.7492 21.5938 66.7449 21.667 66.7664 21.7358Z" fill="#00095B"/>
  <path d="M7.42038 30.9998C3.69594 31.0257 0.41499 28.7195 0.0403929 24.7203C-0.170587 22.5047 0.453741 20.531 1.7067 18.9072C2.81327 17.4604 4.69056 16.2554 6.27937 15.9617C6.79605 15.8667 7.48927 15.9272 7.77776 16.2684C8.22985 16.7953 8.09638 17.3697 7.64858 17.6029C6.43868 18.2248 4.97904 19.2872 4.25999 20.734C3.67441 21.9174 3.55816 23.3469 4.44944 24.703C5.94352 26.9703 10.1158 27.0308 13.9909 23.416C14.9511 22.5306 15.8079 21.6841 16.682 20.6779C18.3913 18.7214 18.9554 18.0045 21.2288 14.8475C21.2546 14.8129 21.2632 14.7611 21.2503 14.7395C21.2331 14.7006 21.1987 14.6877 21.1341 14.6834C19.6185 14.7266 18.2966 15.18 17.0135 16.1431C16.6432 16.4152 16.1136 16.3763 15.8768 16.0179C15.6185 15.6162 15.8036 15.0893 16.2299 14.7957C18.2966 13.3532 20.5528 13.0941 22.8564 12.7054C22.8564 12.7054 23.0157 12.714 23.1491 12.5369C24.0964 11.319 24.8111 10.2221 25.8187 8.9912C26.8348 7.74307 28.1481 6.59427 29.1513 5.73483C30.5507 4.52557 31.4462 4.1196 32.3591 3.62294C32.6002 3.49769 32.3289 3.34653 32.2557 3.34653C27.1621 2.38776 21.8703 1.14395 16.8111 3.02262C13.3106 4.33554 11.7735 7.12116 12.514 8.98256C13.0393 10.3041 14.7702 10.5157 16.3935 9.72108C17.7412 9.0603 18.9855 7.99356 19.8682 6.62018C20.3633 5.86007 21.4053 6.40856 20.8413 7.73011C19.3601 11.2197 16.5313 13.988 13.0867 14.1047C10.1545 14.1997 8.2643 12.036 8.26861 9.36694C8.28152 4.10232 14.1244 0.638648 20.26 0.116074C27.6529 -0.497195 34.654 1.4765 41.9952 2.37049C47.6185 3.05286 53.0135 3.07013 58.6626 1.76585C59.33 1.61902 59.7994 2.04658 59.7563 2.72463C59.7003 3.70499 58.9468 4.64649 57.0824 5.66573C54.964 6.8318 52.7509 7.18162 50.4344 7.20322C44.8413 7.25072 39.6271 5.0611 34.2364 3.88638C34.245 4.12392 34.3052 4.40464 34.1072 4.5558C31.1233 6.76702 28.4236 9.01279 26.6152 12.1655C26.555 12.2389 26.5894 12.308 26.6927 12.2994C28.2643 12.2173 29.6766 12.1742 31.1405 12.0575C31.3946 12.036 31.4075 11.9712 31.3817 11.7855C31.2525 10.6971 31.5668 9.46195 32.5227 8.60683C33.4958 7.73011 34.7186 7.63078 35.5281 8.26132C36.4495 8.98256 36.3677 10.2739 35.8639 11.2456C35.3515 12.2303 34.5076 12.7572 33.6938 13.012C33.6938 13.012 33.5259 13.0509 33.5474 13.2063C33.5819 13.4568 34.6884 14.0701 34.7832 14.2342C34.8736 14.3897 34.8262 14.6315 34.6583 14.8173C34.5421 14.9511 34.3569 15.0764 34.1244 15.0721C33.9349 15.0677 33.8187 15.003 33.5776 14.8691C33.0824 14.597 32.4624 14.1565 32.0447 13.6339C31.9027 13.4568 31.8338 13.4525 31.4807 13.4741C29.8962 13.5648 27.4204 13.8067 25.7455 14.014C25.3408 14.0658 25.2805 14.1392 25.1944 14.2817C22.5205 18.6999 19.6701 23.4678 16.5399 26.6551C13.1814 30.0756 10.387 30.9782 7.42038 30.9998ZM32.8844 11.3622C32.9274 11.5911 33.0135 11.6343 33.1169 11.6127C33.6249 11.5091 34.1847 11.0901 34.5119 10.6064C34.8133 10.1659 34.9554 9.52673 34.654 9.27192C34.387 9.04303 33.9565 9.10781 33.6335 9.39285C32.9963 9.95861 32.7982 10.7662 32.8844 11.3622Z" fill="#00095B"/>
</svg>